<?xml version="1.0" encoding="iso-8859-1"?>
<!-- Generator: Adobe Illustrator 16.0.0, SVG Export Plug-In . SVG Version: 6.00 Build 0)  -->
<!DOCTYPE svg PUBLIC "-//W3C//DTD SVG 1.1//EN" "http://www.w3.org/Graphics/SVG/1.1/DTD/svg11.dtd">
<svg version="1.1" id="Capa_1" xmlns="http://www.w3.org/2000/svg" xmlns:xlink="http://www.w3.org/1999/xlink" x="0px" y="0px"
	 width="500.483px" height="500.483px" viewBox="0 0 500.483 500.483" style="enable-background:new 0 0 500.483 500.483;"
	 xml:space="preserve">
<g>
	<g>
		<polygon points="130.868,180.773 130.878,180.773 130.878,180.773 		"/>
		<path fill="gray" d="M130.8,324.255c-0.122,0.068,0.229,0.146,0.897,0.244c-0.087-0.137-0.209-0.234-0.268-0.342
			c-0.083-0.097-0.103-0.419-0.259-0.312c-0.044-0.029-0.551,0.409-0.371,0.39l-0.039,0.322v0.01
			C130.78,324.47,130.8,324.255,130.8,324.255z"/>
		<polygon points="370.795,326.986 370.58,327.006 370.59,327.006 		"/>
		<rect x="369.761" y="327.055" width="0.088" height="0.01"/>
		<path fill="gray" d="M370.189,324.967c0,0.01,0,0.02-0.01,0.029l0.137-0.01c0.059-0.01,0.156-0.02,0.244-0.029h-0.029
			C370.414,324.957,370.307,324.967,370.189,324.967z"/>
		<path fill="gray" d="M132.927,182.529c0.059-0.049,0.4-1,0.551-1.2l-0.292-0.238c-0.01,0.029-0.039,0.019-0.048,0.058
			c-0.029,0.161-0.41,0.571-0.727,1.473l0,0C132.565,182.593,132.878,182.739,132.927,182.529z"/>
		<path fill="gray" d="M375.379,288.504c-0.478,0.312-1.727,2.049-1.648,1.961c-0.029-0.01-0.176,0.117-0.341,0.332
			c1.707-1.688,3.15-2.741,3.199-2.663c-0.195,0.204-0.429,0.351-0.751,0.312C375.838,288.445,375.604,288.475,375.379,288.504z"/>
		<path fill="gray" d="M389.172,301.507c1.269-1.551,12.428-12.145,12.428-46.042s-11.149-48.115-12.428-49.661
			c-1.307-1.59,7.629-41.955-17.509-43.769c-35.225-0.683-33.176-68.156-33.176-68.156h-13.345
			c-1.482-39.746-34.093-71.531-74.199-71.531c-40.106,0-72.706,31.786-74.194,71.531h-14.286c0,0,2.049,67.473-33.171,68.156
			c-25.152,1.814-16.202,42.179-17.515,43.769c-1.277,1.546-12.422,11.116-12.422,46.032c0,34.912,11.155,48.12,12.422,49.671
			c1.312,1.581-7.628,41.945,17.515,43.77c35.22,0.673,33.181,68.146,33.181,68.146h14.422c4.936,36.277,35.951,64.264,73.58,64.264
			s68.648-27.986,73.575-64.264h14.446c0,0-2.049-67.474,33.176-68.146C396.811,343.442,387.865,303.088,389.172,301.507z
			 M382.754,254.499c-0.02,0.469-0.371,0.917-0.293,1.396c0,0,0.225,4.965,0.029,9.599c-0.186,4.652-0.829,9.062-0.829,9.062
			c-0.107,1.151-0.438,2.195-0.829,3.219c-0.068,0.195-0.312,0.4-0.546,0.557c-0.068,0.068-0.283,1.619-0.273,2.088
			c0.029,0.857-0.79,2.789-0.888,2.955c-0.225,0.479-0.4,0.946-0.731,1.337c-0.526,0.731-1.308,2.712-1.376,2.78
			c-0.087,0.165-0.224,0.419-0.419,0.624c-0.039,0.078-5.219,5.94-5.569,6.857c-0.312,0.712-0.85,2.702-0.957,3.443
			c-0.106,0.653-0.224,1.59-0.282,2.712c-0.029,1.414,0.078,2.409,0.186,3.062c0.204,1.463,0.458,2.361,0.409,2.692
			c-0.117,0.849,0.02,1.542,0.215,2.263c0.059,0.234-0.225,0.361-0.205,0.557c0.098,1.395,0.303,2.663,0.625,3.961
			c-0.01,0.136-0.098,1.541-0.146,2.185c-0.02,0.419-0.391,0.81-0.312,1.239c0,0,0.205,4.506-0.264,7.423
			c-0.029,0.146-0.049,0.205-0.068,0.36c0.234,0,0.537-0.029,0.907-0.02c0.566-0.01-0.097,0.068-0.556,0.117l0.683-0.01h0.02l0,0
			c-0.849,0.059,1.513-0.098-1.093,0.078c-0.156,0.858-0.272,1.464-0.37,1.863c0.059,0,0.098,0.01,0.146,0.01
			c-0.049,0.01-0.137,0.01-0.137,0.029c0.02,0.059,0.02,0.078,0.039,0.137l0.731-0.049c-0.029-0.02-0.049-0.029-0.107-0.059
			c-0.029-0.029-0.107-0.02-0.166-0.039c0.146,0.01,0.332,0,0.459,0.02l0.448,0.02c0.303-0.039,0.575-0.049,0.225-0.02l-0.215,0.02
			h0.049h0.029l-0.205,0.01c-0.087,0.01-0.175,0.01-0.214,0.039c-0.195,0.039-0.254,0.029-0.303,0l-0.332,0.029l-0.409,0.02
			c0.029,0.117,0.078,0.273,0.059,0.283c-0.156,0.225-0.186,0.478-0.273,0.38c-0.078,0.059-0.02-0.039,0.127-0.653l-0.107,0.01
			h-0.146h-0.078h-0.049h-0.01l0,0l0,0l0.391-0.02c0.01-0.049,0.029-0.117,0.039-0.176c-2.8,0.039-8.126,1.249-8.809,1.551
			c-1.482,0.391-4.282,1.474-5.804,1.552l-2.917,0.653l0,0c-0.332-0.225-4.771,3.16-5.512,3.629
			c-1.17,0.604-2.106,1.385-2.975,2.292c-0.293,0.293-0.634,0.176-0.897,0.399c-1.873,1.581-3.453,3.239-4.819,5.151
			c-0.136,0.175-1.97,1.901-2.702,2.819c-0.507,0.575-1.238,0.906-1.629,1.58c0,0-1.238,1.697-2.701,4.087
			c-1.464,2.38-3.181,5.53-4.614,8.652c-1.444,3.132-2.644,6.224-3.473,8.564c-0.78,2.331-1.298,3.902-1.327,3.979
			c-0.448,1.64-1.053,3.171-1.668,4.722c-0.117,0.283-0.41,0.614-0.683,0.897c-0.088,0.088-0.565,2.497-0.604,3.238
			c-0.088,1.298-1.044,4.595-1.142,4.976c-0.244,0.878-0.419,1.717-0.751,2.585c-0.566,1.434-1.151,5.823-1.229,6.34
			c-0.156,0.985-0.38,2.897-1.054,3.717l-0.926,1.746c-0.283,0.049-0.068,3.746-0.273,4.37c-0.312,0.858-0.322,1.678-0.283,2.585
			c0.01,0.293-0.312,0.391-0.332,0.645c-0.117,1.043-0.204,2.272-0.185,3.238l0.039,0.205l0.038,0.194l0.059,0.42
			c-0.029,0.117-0.351,1.21-0.487,1.717c-0.098,0.36-0.546,0.624-0.536,1.005c0,0-0.625,3.813-1.98,7.521
			c-1.287,3.717-3.414,7.384-3.414,7.384c-0.537,0.957-1.132,1.834-1.912,2.625c-0.137,0.146-0.439,0.253-0.722,0.331
			c-0.068,0.029-0.868,1.444-1.063,1.902c-0.283,0.858-1.932,2.565-2.107,2.751c-0.419,0.458-0.838,0.888-1.375,1.258
			c-0.839,0.635-2.877,2.976-3.15,3.239c-0.508,0.468-1.453,1.492-2.303,1.492l-1.414,0.36c-0.215-0.146-1.746,1.99-2.205,2.146
			c-0.614,0.234-1.023,0.634-1.463,1.103c-0.137,0.146-0.39-0.039-0.526,0.049c-0.995,0.712-1.922,1.414-2.829,2.341
			c-0.068,0.098-1.355,0.596-1.941,0.907c-0.39,0.195-0.907,0.068-1.248,0.37c0,0-3.785,2.391-7.804,4.137
			c-3.99,1.795-8.263,3.121-8.263,3.121c-1.092,0.391-2.204,0.596-3.336,0.664c-0.215,0.02-0.508-0.098-0.78-0.234
			c-0.088-0.02-1.678,0.458-2.136,0.692c-0.82,0.448-3.19,0.575-3.464,0.614c-0.629,0.059-1.219,0.078-1.849,0
			c-1.058-0.088-4.043,0.264-4.424,0.254c-0.678,0-2.019,0.137-2.624-0.459l-1.249-0.702c-0.044-0.233-2.57,0.264-3,0.068
			c-0.59-0.224-1.146-0.233-1.775-0.185c-0.2,0.01-0.253-0.303-0.419-0.322c-1.181-0.146-2.321-0.293-3.6-0.234
			c-0.117,0.02-1.365-0.517-1.995-0.683c-0.41-0.117-0.693-0.546-1.131-0.585c0,0-4.336-0.898-8.448-2.42
			c-4.126-1.463-8.174-3.502-8.174-3.502c-1.068-0.478-2.015-1.111-2.917-1.854c-0.166-0.127-0.307-0.429-0.419-0.712
			c-0.048-0.068-1.556-0.839-2.068-0.995c-0.917-0.233-2.775-1.805-3.004-1.96c-0.488-0.41-0.971-0.79-1.39-1.288
			c-0.727-0.81-3.243-2.634-3.517-2.906c-0.507-0.459-1.624-1.298-1.668-2.146l-0.458-1.355l0,0
			c0.112-0.215-2.078-1.552-2.268-1.961c-0.268-0.566-0.658-0.956-1.156-1.317c-0.161-0.126,0.02-0.39-0.083-0.507
			c-0.756-0.897-1.449-1.736-2.405-2.507c-0.058-0.117-0.658-1.249-0.941-1.775c-0.219-0.342-0.088-0.858-0.356-1.142
			c0,0-2.38-3.404-4.009-6.965c-1.717-3.541-2.688-7.365-2.688-7.365c-0.258-0.789-0.336-1.775-0.366-2.321l0.01-0.204l0.01-0.068
			l0.059-0.127c0.068-0.049,0.151-0.479,0.249-0.684c0.049-0.137-0.439-2.555-0.688-3.238c-0.419-1.219-0.81-4.584-0.858-4.965
			c-0.112-0.888-0.258-1.736-0.292-2.644c-0.02-1.531-1.146-5.794-1.269-6.302c-0.22-0.976-0.746-2.838-0.429-3.863l0.171-1.97
			c0.249-0.176-1.371-3.551-1.419-4.185c-0.049-0.937-0.371-1.697-0.746-2.527c-0.122-0.263,0.127-0.487,0.059-0.721
			c-0.488-1.698-1.098-3.288-1.946-4.946c-0.054-0.195-0.58-2.126-0.829-3.024c-0.2-0.604-0.044-1.287-0.351-1.872
			c-0.039-0.088-0.698-1.63-1.678-3.902c-1.029-2.292-2.497-5.326-4.194-8.359c-1.688-3.044-3.658-6.067-5.346-8.331
			c-1.668-2.282-3.067-3.853-3.067-3.853c-1.449-1.668-2.668-3.054-4.126-4.731c-0.268-0.303-0.517-0.8-0.736-1.248
			c-0.029-0.156-2.658-2.205-3.575-2.673c-1.478-0.937-5.584-3.746-6.155-3.98c-1.087-0.692-2.087-1.248-3.443-2.009
			c-1.97-1.347-8.701-2.966-9.521-2.995c-0.771-0.127-1.887-0.303-3.039-0.478c-1.059-0.156-2.595-0.391-2.985-0.635
			c0.288,0.469,0.449,0.498,0.39,0.42c0.078,0.02-0.22,0.137-0.249,0.166c-0.024,0.029-0.332-0.068-0.341-0.078
			c0.029-0.352-0.18-0.586-0.39-0.762c-0.078-0.029-0.151-0.058-0.229-0.097c-0.058,0.067-0.151,0.175-0.17,0.136
			c-0.039-0.204-0.107-0.351-0.249-0.155c-0.029,0.02,0.02-0.088,0.029-0.146c-0.161-0.039-0.21-0.078,0.02-0.098
			c0.068-0.156,0.161-0.283,0.19-0.127l0.132-1.502c-0.093-0.283-0.161-0.458-0.253-0.8c-0.815-3.103-0.995-7.765-0.995-7.765
			c-0.103-1.249-0.01-2.146,0.2-3.746c0.039-0.351,0.249-0.829,0.449-1.249c0,0,0.068-3.512-0.049-4.447
			c-0.103-1.756-0.103-6.478-0.253-6.975c0.073-1.249-1.005-2.273-0.639-3.551c-0.38-1.893-3.863-7.277-4.414-7.823
			c-1.136-1.659-1.297-1.971-1.156-2.868l0.098-1.277c0.229-0.137-1.317-1.961-1.327-2.43c-0.02-0.614-0.283-1.082-0.6-1.609
			c-0.103-0.166,0.156-0.352,0.107-0.498c-0.346-1.102-0.756-2.165-1.346-3.297c-0.01-0.137-0.2-1.492-0.292-2.126
			c-0.068-0.43,0.209-0.897,0.034-1.308c0,0-1.131-4.418-1.75-9.11c-0.341-2.321-0.571-4.722-0.727-6.536
			c-0.132-1.824-0.219-3.062-0.219-3.121c-0.132-1.307-0.063-2.565,0.087-3.844c0.02-0.225,0.21-0.531,0.391-0.805
			c0.049-0.098-0.112-1.956-0.259-2.526c-0.253-0.976-0.01-3.614,0.039-3.892c0.078-0.692,0.098-1.361,0.298-2.029
			c0.292-1.142,0.38-4.438,0.438-4.804c0.063-0.732,0.181-2.141,0.81-2.688l0.858-1.18c0.263-0.029,0.063-2.585,0.302-2.946
			c0.308-0.541,0.381-1.039,0.381-1.639c0-0.19,0.316-0.181,0.365-0.332c0.303-1.034,0.522-1.995,0.61-3.053
			c0.054-0.093,0.581-1.01,0.829-1.438c0.151-0.259,0.6-0.381,0.649-0.659c0.015-0.01,0.083-0.209,0.224-0.512
			c0.146-0.229,0.078-0.229,0.449-0.736c0.41-0.561,0.858-1.181,1.356-1.868c0.961-1.39,1.97-3.048,2.858-4.804
			c0.41-0.858,0.819-1.741,1.249-2.648c-0.43-1.126,0.497-2.019,0.561-3.058c0.678-4.116-0.01-8.589-0.253-11.856
			c-0.186-2.405-0.317-4.024-0.327-4.112c-0.142-1.19-0.059-2.322,0.107-3.41c0.034-0.2,0.209-0.468,0.399-0.678
			c0.073-0.068-0.078-1.639-0.19-2.068c-0.249-0.849,0.151-2.736,0.19-2.907c0.01-0.049,0.029-0.088,0.039-0.142l-0.219,0.01H129.8
			h-0.068h-0.02h-0.01l0,0l0.385-0.029c0-0.01,0.01-0.02,0.01-0.039c-0.02,0-0.049,0-0.078,0c0.029,0,0.049,0,0.078-0.01
			c0.093-0.39,0.161-0.751,0.342-1.088c0.18-0.36,0.312-0.868,0.419-1.312c-0.078-0.01-0.161-0.01-0.219-0.02
			c0.068,0,0.151,0,0.239-0.029c0.01-0.049,0-0.049,0.01-0.098c0-0.024,0-0.024,0-0.044l-1.126,0.083
			c0.078,0.01,0.117,0.02,0.19,0.029c-0.083,0-0.161-0.02-0.229-0.02h-0.063h-0.02l0,0l0.112-0.01
			c-0.092-0.01-0.102-0.01-0.209-0.029c-0.063,0-0.142,0-0.19,0.01c0.098,0,0.161-0.01,0.181-0.01c0,0,0,0,0.01,0
			c0.161,0,0.317-0.01,0.517-0.02l0.819-0.034c-0.02-0.068-0.029-0.146,0-0.146c0.02,0,0.029-0.029,0.049-0.029
			c0.044-0.224,0.103-0.512,0.103-0.531c0.078-0.229,0.122-0.561,0.571-0.288c0.029-0.039,0.498,0.41,0.468,0.4l0,0l0.059,0.049
			c0.209,0.161,0.59,0.448,0.941,0.707c2.287-0.288,10.696-1.604,17.617-5.975c4.019-2.375,7.365-5.263,9.569-7.492
			c2.239-2.243,3.526-3.901,3.526-3.901c1.351-1.648,2.487-3.039,3.838-4.697c0.229-0.278,0.648-0.57,1.039-0.81
			c0.137-0.078,1.536-2.595,1.814-3.385c0.561-1.39,2.541-4.746,2.707-5.116c0.502-0.897,0.912-1.756,1.473-2.614
			c0.956-1.439,2.565-5.965,2.736-6.482c0.366-0.99,1-2.96,1.814-3.697l1.238-1.668l0,0c0.303-0.02,0.771-3.848,1.059-4.424
			c0.463-0.829,0.6-1.658,0.712-2.57c0.029-0.288,0.361-0.336,0.43-0.576c0.478-1.702,0.79-3.36,0.951-5.165
			c0.049-0.19,0.629-2.039,0.888-2.897c0.151-0.59,0.639-1.058,0.678-1.678c0.01-0.083,0.278-1.639,0.668-3.926
			c0.381-2.297,0.819-5.326,1.171-8.37c0.361-3.048,0.629-6.082,0.79-8.53c0.068-1.351,0.117-2.478,0.156-3.278
			c0-0.439,0-0.697,0-0.722c-0.078-1.034,0.18-2.024,0.419-3.014c0.044-0.181,0.244-0.4,0.464-0.581
			c0.068-0.059,0.136-1.565,0.049-2.048c-0.132-0.829,0.526-2.927,0.6-3.156c0.2-0.546,0.346-1.078,0.639-1.609
			c0.459-0.858,1.2-3.644,1.356-3.975c0.244-0.6,0.609-1.849,1.399-2.146l1.098-0.829l0,0c0.219,0.049,0.741-2.375,1.048-2.688
			c0.429-0.429,0.673-0.907,0.854-1.498c0.059-0.19,0.366-0.102,0.449-0.239c0.576-0.99,1.156-1.932,1.595-3.097
			c0.02-0.122,1-1.02,1.4-1.507c0.268-0.312,0.79-0.39,0.98-0.761c0,0,2.498-3.497,5.565-6.541c2.995-3.107,6.531-5.877,6.531-5.877
			c0.907-0.727,1.858-1.346,2.906-1.834c0.19-0.093,0.527-0.083,0.829-0.063c0.107,0.01,1.4-1.097,1.775-1.468
			c0.62-0.688,2.81-1.785,3.068-1.868c0.59-0.269,1.131-0.581,1.761-0.747c1.068-0.283,3.804-1.838,4.165-1.96
			c0.629-0.307,1.888-0.917,2.697-0.62l1.448,0.132l0,0c0.146,0.22,2.327-1.239,2.795-1.258c0.648,0.02,1.181-0.21,1.727-0.512
			c0.181-0.098,0.352,0.171,0.512,0.122c1.156-0.322,2.249-0.629,3.385-1.2c0.142-0.01,1.468-0.107,2.078-0.161
			c0.42-0.049,0.849,0.229,1.249,0.112c0,0,4.243-0.888,8.408-1.02c4.165-0.219,8.535,0.22,8.535,0.22
			c1.132,0.112,2.215,0.302,3.288,0.678c0.194,0.073,0.429,0.302,0.614,0.532c0.059,0.078,1.727,0.18,2.263,0.19
			c0.917-0.073,3.199,0.668,3.443,0.791c0.596,0.219,1.2,0.366,1.756,0.697c0.956,0.537,3.971,1.346,4.321,1.517
			c0.663,0.22,1.98,0.678,2.351,1.458l0.947,1.103l0,0c-0.068,0.278,2.555,0.756,2.887,1.078c0.469,0.468,1.005,0.668,1.619,0.849
			c0.205,0.049,0.137,0.371,0.283,0.449c1.054,0.6,2.078,1.126,3.307,1.546c0.107,0.092,1.151,0.96,1.639,1.36
			c0.342,0.249,0.449,0.781,0.839,0.971c0,0,3.736,2.385,6.945,5.233c3.239,2.805,6.116,6.062,6.116,6.062
			c0.762,0.829,1.405,1.717,1.893,2.707c0.098,0.181,0.107,0.498,0.088,0.79c0.02,0.078,1.093,1.288,1.463,1.614
			c0.723,0.551,1.756,2.6,1.863,2.829c0.293,0.542,0.557,1.039,0.713,1.648c0.312,0.971,1.717,3.507,1.872,3.824
			c0.254,0.6,0.8,1.751,0.518,2.488l-0.225,1.341c-0.225,0.136,1.171,2.117,1.103,2.546c-0.049,0.59,0.186,1.058,0.438,1.575
			c0.078,0.171-0.214,0.312-0.176,0.463c0.215,1.078,0.547,2.087,0.897,2.834c0,0.122,0.01,1.332,0.029,1.892
			c0.02,0.537-0.321,1.068-0.205,1.615c0.01,0.092,0.215,1.741,0.498,4.185c0.322,2.38,0.81,5.414,1.375,8.423
			c0.566,3.015,1.2,6.004,1.736,8.263c0.557,2.253,0.937,3.785,0.956,3.853c0.459,1.581,0.751,3.137,1.015,4.756
			c0.059,0.288-0.02,0.717-0.107,1.098c-0.029,0.131,0.81,2.419,1.171,3.067c0.604,1.146,1.531,4.536,1.658,4.912
			c0.264,0.902,0.565,1.751,0.751,2.702c0.293,1.565,2.264,5.853,2.526,6.379c0.42,0.98,1.376,2.868,1.337,4.019l0.341,2.156
			c-0.214,0.229,2.332,3.546,2.604,4.233c0.352,1,0.897,1.771,1.58,2.59c0.205,0.259,0.039,0.556,0.195,0.805
			c1.083,1.751,2.312,3.351,3.893,4.956c0.127,0.151,1.443,2.19,2.233,3.117c0.508,0.609,0.702,1.409,1.327,1.961
			c0.098,0.058,1.502,1.595,3.989,3.711c2.478,2.112,6.146,4.79,10.438,6.813c4.233,2.087,9.004,3.336,12.545,3.838
			c1.551,0.269,4.048,0.43,4.701,0.449c0.332,0,0.371,0,0.547,0c-0.205-0.303-0.595-0.649-0.381-0.61
			c0.107-0.122,0.117,0.01,0.205,0.02c0,0,0.429,0.249,0.507,0.591c0.02,0,0.137,0,0.137,0c0.01-0.078,0.43,0.029,0.293,0.151
			c0.01,0-0.059,0.18-0.166,0.346c-0.02,0.073-0.195-0.258-0.244-0.468c0,0-0.02-0.02-0.02-0.029c-0.049,0-0.225,0-0.341,0
			c0.039,0.058,0.116,0.117,0.126,0.18c0.137,0.209,0.488,0.878,0.068,1.429l-0.194,0.458c0.233,0.068,0.321,0.098,0.272,0.088
			c-0.01,0,0.01,0,0.312,0.039c-0.059,0-0.43,0-0.634,0.01l-0.146,0.342c-0.244,0.049,0.839,1.697,0.741,2.146
			c-0.127,0.542,0.039,0.971,0.225,1.522c0.059,0.166-0.234,0.278-0.215,0.429c0.088,1.059,0.254,2.136,0.566,3.346
			c-0.01,0.137-0.137,1.488-0.195,2.127c-0.02,0.429-0.41,0.829-0.342,1.287c0,0.21,0.078,0.6-0.078,4.409
			c-0.039,3.302-0.644,7.789,0.731,11.784c0.78,3.867,3.824,7.823,5.346,10.237c0.917,1.521,1.181,2.19,1.269,2.297
			c0.507,0.902,0.819,1.888,1.053,2.946c0.049,0.205-0.029,0.502-0.126,0.78c-0.029,0.083,0.683,1.541,0.976,1.98
			c0.536,0.717,1.053,3.097,1.102,3.365c0.127,0.639,0.273,1.239,0.312,1.907c0.039,1.107,0.927,4.248,0.985,4.652
			c0.155,0.712,0.468,2.161,0.039,2.922l-0.439,1.473c-0.243,0.103,0.79,2.751,0.683,3.258c-0.137,0.703,0,1.307,0.205,1.98
			c0.059,0.21-0.244,0.337-0.215,0.518c0.078,1.331,0.254,2.6,0.586,3.965C382.9,252.285,382.803,253.797,382.754,254.499z"/>
		<path fill="gray" d="M369.741,324.986c0.156,0,0.292-0.01,0.438-0.01c0-0.039,0.01-0.068,0.02-0.107c-0.166,0-0.312-0.01-0.351-0.098
			C369.761,324.694,369.78,324.908,369.741,324.986z"/>
		<g>
			<g>
				<path fill="gray" d="M422.67,251.144c-0.322-1.819-0.536-3.497-0.634-5.282c0-0.253-0.146-2.448-0.029-3.38
					c0.088-0.668-1.044-4.365-0.81-4.512l0,0c0.438-1.019,0.391-5.136,0.156-6.194c-0.117-0.542-0.273-1.19-0.41-1.771
					c-0.438-1.707-0.849-3.434-0.995-5.122c-0.097-1-0.331-1.931-0.536-2.906c-0.098-0.42-0.576-0.8-0.518-1.259
					c0.205-1.419-0.468-2.887-1.141-4.155c-0.391-0.722-0.371-1.619-0.741-2.419c-0.117-0.269-0.381-0.308-0.537-0.508
					c-0.097-0.112-0.106-1.38-0.204-1.712c-0.498-1.814-1.122-3.595-2.01-5.36c0,0-0.927-2.019-2.107-4.175
					c-0.575-1-1.033-1.419-1.688-2.248c-0.127-0.897-0.098-1.829-0.156-2.546c-0.02-1.551-0.029-2.6-0.029-2.648
					c-0.078-0.649,0.312-1.249,0.332-1.907c0.068-0.99,0.205-3.097,0.215-3.326c-0.322-2.01-0.518-3.897-0.693-5.956
					c-0.01-0.278-0.233-2.838-0.214-3.995c0.088-0.771-1.532-5.355-1.337-5.565c0.342-1.268-0.741-6.853-1.521-8.418
					c-0.352-0.81-0.731-1.668-1.209-2.497c-1.308-2.448-2.78-4.965-4.459-7.491c-0.906-1.488-2.146-2.829-3.424-4.19
					c-0.497-0.576-1.482-0.907-1.97-1.585c-1.493-2.097-4.233-3.697-6.673-4.687c-1.395-0.547-2.701-1.556-4.185-1.985
					c-0.497-0.161-0.79-0.01-1.209-0.073c-0.234-0.029-2.107-1.127-2.634-1.249c-3.112-0.976-5.727-1.415-8.896-1.527
					c-0.039,0-0.41,0-1.034,0c-0.575-0.049,0.438,0.093,0,0.073c-0.351,0.01-0.722,0.059-1.249-0.112
					c-1.014-0.151-3.062-1.887-3.102-1.965c-0.244-0.122-0.127-0.581-0.293-0.771c-0.204-0.371-0.683-1.151-0.731-1.239
					c-0.761-0.522-1.375-1.2-1.882-2.049c-0.078-0.098-0.713-1.19-0.811-1.756c-0.078-0.36-1.814-2.058-1.6-2.277l0,0
					c0.195-0.761-0.399-3.278-0.673-3.927c-0.156-0.321-0.361-0.702-0.546-1.039c-0.537-1-0.995-2.078-1.171-3.185
					c-0.088-0.663-0.312-1.248-0.487-1.892c-0.068-0.268-0.527-0.458-0.439-0.786c0.264-1-0.273-1.921-0.8-2.736
					c-0.303-0.473-0.186-1.083-0.41-1.62c-0.077-0.18-0.331-0.2-0.448-0.331c-0.078-0.068,0.117-0.937,0.088-1.171
					c-0.176-1.224-0.381-2.424-0.761-3.624c-0.4-0.039-4.107-19.017-3.707-18.816c-0.127-0.542,0.215-1.068,0.195-1.62
					c0.029-0.512-0.127-3.458-0.166-3.584c-0.575-2.498-1.005-4.355-1.454-6.316c-0.02-0.297-0.565-2.746-0.663-3.814
					c0-0.79-1.95-4.697-1.746-4.863c0.254-1.229-0.878-5.648-1.336-6.736c-0.264-0.536-0.595-1.195-0.888-1.775
					c-0.858-1.722-1.746-3.419-2.371-5.097c-0.36-1.019-0.828-1.907-1.336-2.833c-0.195-0.4-0.771-0.649-0.839-1.142
					c-0.186-1.487-1.249-2.755-2.263-3.814c-0.586-0.61-0.791-1.487-1.366-2.17c-0.185-0.229-0.458-0.2-0.663-0.336
					c-0.127-0.083-0.459-1.292-0.634-1.581c-0.937-1.619-2.01-3.087-3.239-4.492c0,0-1.219-1.449-3.004-3.399
					c-1.785-1.956-4.243-4.414-6.809-6.731s-5.258-4.468-7.326-6.023c-2.098-1.498-3.521-2.507-3.6-2.556
					c-0.595-0.341-0.888-1.01-1.434-1.4c-0.79-0.61-2.468-1.917-2.634-2.058c-1.834-0.819-3.424-1.688-5.072-2.658
					c-0.244-0.127-2.272-1.307-3.044-1.946c-0.556-0.449-4.477-1.6-4.447-1.887l0,0c-0.693-0.907-4.381-3.166-5.424-3.517
					c-0.547-0.19-1.2-0.41-1.795-0.61c-1.727-0.571-3.492-1.068-5.023-1.858c-0.918-0.449-1.854-0.707-2.829-1.039
					c-0.41-0.151-0.966,0.068-1.337-0.229c-1.121-0.922-2.731-1.048-4.155-1.146c-0.81-0.063-1.561-0.522-2.419-0.615
					c-0.283-0.029-0.459,0.181-0.693,0.215c-0.146,0.02-1.199-0.634-1.521-0.722c-1.746-0.517-3.531-0.839-5.375-1.049
					c-0.088,0-1.872-0.171-4.506-0.419c-2.644-0.19-6.16-0.317-9.677-0.229c-3.526,0.088-7.014,0.4-9.633,0.717
					c-2.595,0.39-4.346,0.658-4.443,0.673c-0.668,0.156-1.346-0.093-2.029,0c-1,0.107-3.136,0.346-3.365,0.375
					c-1.888,0.712-3.678,1.181-5.536,1.668c-0.258,0.073-2.546,0.653-3.556,0.741c-0.707,0.078-4.331,2-4.511,1.8l0,0
					c-1.132-0.171-5.336,0.814-6.336,1.307c-0.507,0.249-1.137,0.561-1.688,0.829c-1.629,0.81-3.224,1.668-4.863,2.185
					c-0.96,0.332-1.809,0.79-2.707,1.229c-0.391,0.181-0.639,0.731-1.112,0.771c-1.434,0.142-2.663,1.146-3.722,2.068
					c-0.609,0.517-1.458,0.717-2.131,1.239c-0.229,0.18-0.2,0.439-0.347,0.629c-0.083,0.117-1.278,0.38-1.57,0.527
					c-1.6,0.839-3.078,1.819-4.526,2.926c-0.068,0.054-1.448,1.151-3.473,2.771c-2.01,1.658-4.575,3.946-7.053,6.35
					c-2.448,2.429-4.774,4.995-6.472,6.994c-1.668,2.087-2.78,3.478-2.838,3.556c-0.371,0.59-1.049,0.868-1.478,1.4
					c-0.659,0.819-2.166,2.404-2.239,2.595c-0.937,1.829-1.937,3.409-2.975,5.106c-0.141,0.249-1.478,2.258-2.126,3.087
					c-0.493,0.566-1.868,4.584-2.107,4.594l0,0c-1,0.678-3.371,4.546-3.76,5.672c-0.239,0.581-0.488,1.259-0.668,1.878
					c-0.527,1.858-1.209,3.668-1.917,5.346c-0.43,1.005-0.727,1.985-1.059,3.024c-0.151,0.429,0.098,1.039-0.2,1.439
					c-0.858,1.249-1.068,2.936-1.068,4.462c0,0.873-0.438,1.702-0.531,2.619c-0.029,0.312,0.19,0.468,0.229,0.732
					c0.01,0.136-0.576,1.297-0.639,1.668c-0.375,1.907-0.737,3.804-0.717,5.78c0,0.053-0.02,0.551-0.049,1.39
					c-0.02,0.419-0.044,0.922-0.063,1.498v0.112v0.049l0,0c0-0.122,0.019-0.352,0.053-0.81l0,0c0,0.073,0,0.029,0,0.049v0.21
					l-0.034,0.57c-0.078,1.649-0.277,4.078-0.526,6.472c-0.498,4.829-1.341,9.701-1.341,9.701c-0.02,0.488-0.478,0.829-0.595,1.288
					c-0.209,0.648-0.683,2.058-0.731,2.209c-0.049,1.385-0.239,2.644-0.609,3.902c-0.039,0.18-0.508,1.712-0.878,2.292
					c-0.239,0.419-0.371,3.175-0.649,3.175l0,0c-0.722,0.488-2.117,2.873-2.371,3.506c-0.098,0.337-0.219,0.747-0.327,1.117
					c-0.312,1.078-0.702,2.107-1.317,2.917c-0.371,0.478-0.6,0.98-0.893,1.468c-0.117,0.21,0.083,0.629-0.19,0.741
					c-0.829,0.386-1.019,1.215-1.146,1.966c-0.083,0.429-0.542,0.639-0.688,1.029c-0.054,0.141,0.107,0.322,0.126,0.458
					c0,0.103-0.648,0.293-0.761,0.41c-0.585,0.609-1.107,1.151-1.487,1.736c-0.01,0.103-1.717,2.248-2.678,2.917
					c-0.868,0.771-1.736,0.99-1.854,1.043c-0.132,0.078-0.273-0.292-0.39-0.283c-0.951,0.049-2.458,0.151-3.79,0.229
					c-0.288,0.01-0.556,0.02-0.756,0.029c-0.522,0.093-0.829,0.142-0.961,0.161c-4.375,1.132-7.18,2.258-10.408,3.877
					c-0.488,0.127-4.316,2.375-5.902,3.434c-0.542,0.37-2.258,1.941-3.575,3.507c-1.269,1.521-2.317,2.945-2.478,2.975l0,0
					c-1.761,1.044-5.765,6.862-6.252,8.394c-0.371,0.786-0.673,1.717-0.951,2.546c-0.736,2.409-1.347,4.375-2.107,6.853
					c-0.39,1.19-0.629,2.375-0.858,3.556c-0.103,0.487,0.181,1.107-0.068,1.58c-0.771,1.448-0.741,3.263-0.58,4.785
					c0.078,0.868-0.273,1.746-0.22,2.643c0.02,0.312,0.249,0.439,0.317,0.693c0.039,0.146-0.42,1.327-0.439,1.668
					c-0.2,1.868-0.258,3.633-0.117,5.414c0,0.039,0.029,0.488,0.078,1.239c0.02,0.366,0.048,0.819,0.087,1.327
					c0.01-0.078,0.054,0.229,0.073,0.361c0.127,0.697,0.288,1.629,0.459,2.546c0.151,0.99-0.858,1.527-1.01,2.249
					c-0.878,1.785-1.468,2.995-1.498,3.068c-0.302,0.775-0.941,1.278-1.297,2.005c-0.541,1.097-1.658,3.287-1.702,3.487
					c-0.536,2.185-1.078,4.136-1.668,6.082c-0.098,0.288-0.795,2.678-1.215,3.624c-0.331,0.703-0.492,4.858-0.751,4.917l0,0
					c-0.751,0.907-1.965,5.033-2.068,6.097c-0.039,0.556-0.087,1.234-0.131,1.834c-0.088,1.761-0.21,3.507-0.557,5.097
					c-0.219,0.956-0.248,1.858-0.351,2.805c-0.039,0.399,0.302,0.878,0.088,1.268c-0.605,1.21-0.449,2.688-0.195,3.966
					c0.127,0.741-0.171,1.492-0.103,2.277c0.02,0.264,0.259,0.381,0.341,0.59c0.049,0.122-0.371,1.171-0.4,1.454
					c-0.161,1.648-0.22,3.258-0.083,4.926c0,0.078,0.103,1.688,0.254,4.058c0.186,2.391,0.448,5.551,0.878,8.75
					c0.41,3.19,0.927,6.409,1.429,8.857c0.527,2.459,0.878,4.107,0.897,4.195c0.22,0.634-0.02,1.316,0.098,1.96
					c0.171,0.976,0.522,3.054,0.561,3.278c0.761,1.853,1.371,3.589,1.96,5.472c0.068,0.264,0.795,2.575,0.985,3.629
					c0.093,0.751,2.38,4.478,2.209,4.702c-0.029,0.624,0.307,2.048,0.8,3.492c0.429,1.141,0.8,2.146,0.946,2.536
					c0.093,0.136,0.219,0.253,0.361,0.37c0.361,0.361,0.707,0.751,0.78,1.161c0.098,0.224,0.029,0.507,0.02,0.771
					c-0.02,0.107,0.352,0.166,0.161,0.312c-0.57,0.438-0.351,0.771-0.093,1.111c0.142,0.205-0.146,0.439-0.068,0.645
					c0.029,0.078,0.259,0.107,0.352,0.166c0.049,0.077-0.391,0.595-0.42,0.74c-0.19,1.249-0.321,3.298-0.209,5.005
					c0,0.088,0.098,1.883,0.229,4.526c0.2,2.711,0.576,6.398,1.396,10.398c1.17,7.882,6.652,17.637,7.125,17.802
					c0.62,0.868,1.004,2,1.678,2.917c0.946,1.443,3.575,4.448,3.863,4.623c2.907,2.283,5.853,4.283,9.072,5.824
					c0.448,0.342,4.394,1.971,6.053,2.604c0.561,0.215,2.639,0.614,4.497,0.8c1.727,0.117,3.292,0.176,3.405,0.312l0,0
					c0.39,0.098,0.029,0.156,1.248,0.312l0.61,0.205c0.38,0.137,1.258,0.293,0.849,0.39c-0.419,0.146-0.049,0.322-0.029,0.303
					c0.068,0.01,0.161-0.02,0.249-0.068c0.229-0.059,0.488-0.068,0.629,0.234c0.068,0.195,0.209,0.215,0.351,0.332
					c0.059,0.049,0.327-0.244,0.308-0.029c-0.068,0.604,0.322,0.556,0.79,0.585c0.258,0,0.258,0.37,0.507,0.468
					c0.083,0.039,0.273-0.126,0.391-0.136c0.073,0,0.063,0.565,0.122,0.653c0.336,0.536,0.727,1.044,1.287,1.58
					c0,0,2.088,2.146,4.097,5.609c2.014,3.326,3.804,7.589,3.804,7.589c0.229,0.39,0.02,0.897,0.161,1.308
					c0.146,0.634,0.478,1.999,0.507,2.155c0.678,1.142,1.17,2.292,1.532,3.541c0.058,0.176,0.478,1.736,0.468,2.448
					c0.01,0.488,1.419,3.014,1.166,3.18c-0.347,0.82-0.186,3.834-0.01,4.585c0.083,0.381,0.219,0.858,0.341,1.278
					c0.38,1.219,0.668,2.487,0.659,3.697c0,0.711,0.112,1.385,0.2,2.087c0.029,0.293,0.449,0.575,0.322,0.897
					c-0.41,0.995-0.01,2.039,0.375,2.945c0.224,0.518,0.015,1.112,0.171,1.669c0.053,0.175,0.292,0.224,0.4,0.38
					c0.049,0.117-0.137,0.4-0.21,0.927c-0.01,0.234-0.02,0.42-0.02,0.498l0.01,0.282l0.039,0.791
					c0.229,2.028,0.41,3.511,0.858,5.189c0.024,0.097,0.522,1.94,1.249,4.672c0.819,2.702,2.009,6.224,3.507,9.569
					c1.429,3.375,3.146,6.575,4.516,8.916c1.351,2.36,2.41,3.843,2.439,3.94c0.438,0.566,0.448,1.327,0.839,1.902
					c0.517,0.897,1.639,2.8,1.756,3.005c1.438,1.473,2.619,2.955,3.867,4.478c0.181,0.204,1.659,2.116,2.195,2.984
					c0.37,0.625,3.658,3.18,3.565,3.414c0.302,1.151,3.038,4.556,3.896,5.277c0.439,0.41,0.99,0.839,1.478,1.2
					c1.458,1.093,2.877,2.272,4.078,3.492c0.717,0.731,1.468,1.336,2.268,1.97c0.327,0.254,0.937,0.244,1.176,0.654
					c0.751,1.229,2.151,1.98,3.458,2.497c0.741,0.321,1.268,1.015,2.019,1.424c0.249,0.127,0.478,0,0.717,0.039
					c0.141,0.029,0.888,0.985,1.161,1.181c1.439,1.072,2.917,2.049,4.555,2.828c0.078,0.039,1.639,0.82,3.956,1.961
					c2.316,1.132,5.443,2.479,8.638,3.678c3.175,1.22,6.442,2.225,8.92,2.937c2.497,0.644,4.185,1.073,4.277,1.103
					c0.668,0.097,1.195,0.595,1.844,0.779c0.99,0.264,3.019,0.986,3.219,0.967c2.009,0.097,3.823,0.37,5.745,0.644
					c0.269,0.029,2.604,0.448,3.585,0.702c0.688,0.234,4.814-0.107,4.931,0.127l0,0c0.99,0.644,5.355,1.307,6.506,1.268
					c0.619,0.01,1.316-0.068,1.937-0.127c1.858-0.175,3.735-0.272,5.472-0.214c1.044,0.039,2.039-0.01,3.063-0.107
					c0.429-0.039,0.878-0.469,1.336-0.332c1.405,0.391,2.966-0.039,4.302-0.565c0.771-0.273,1.639-0.137,2.479-0.361
					c0.272-0.088,0.351-0.341,0.565-0.478c0.117-0.078,1.337,0.107,1.668,0.068c1.814-0.215,3.551-0.565,5.297-1.112
					c0,0,1.795-0.498,4.263-1.316c2.468-0.811,5.668-2.01,8.799-3.346c3.131-1.347,6.185-2.858,8.438-4.059
					c2.225-1.258,3.736-2.107,3.824-2.156c0.546-0.399,1.268-0.39,1.854-0.712c0.897-0.478,2.828-1.365,2.965-1.512
					c1.502-1.278,2.985-2.331,4.546-3.434c0.215-0.156,2.165-1.453,3.054-1.912c0.663-0.292,3.375-3.326,3.619-3.238l0,0
					c1.15-0.195,4.73-2.634,5.54-3.404c0.448-0.4,0.897-0.937,1.308-1.386c1.238-1.355,2.517-2.682,3.843-3.804
					c0.81-0.653,1.493-1.356,2.185-2.137c0.293-0.312,0.352-0.927,0.781-1.142c1.316-0.644,2.165-2.048,2.818-3.346
					c0.381-0.741,1.151-1.209,1.601-1.97c0.155-0.254,0.028-0.498,0.097-0.741c0.049-0.146,1.073-0.85,1.298-1.122
					c1.22-1.396,2.282-2.937,3.229-4.575c0.049-0.078,0.956-1.688,2.293-4.058c1.268-2.419,2.849-5.678,4.185-9.092
					c1.326-3.414,2.458-6.906,3.121-9.628c0.732-2.702,1.054-4.672,1.054-4.672c0.078-0.732,0.595-1.317,0.761-2.029
					c0.234-1.073,0.771-3.385,0.829-3.629c0.02-0.439,0.039-0.849,0.059-1.248l0.02-0.771l0.02-0.78
					c-0.02-0.985,0-1.609,0.098-2.478c0.02-0.195,0.234-1.814,0.517-2.478c0.186-0.458-0.137-3.414,0.146-3.443l0,0
					c0.625-0.644,1.639-3.521,1.766-4.282c0.039-0.4,0.088-0.888,0.137-1.317c0.127-1.268,0.322-2.536,0.79-3.638
					c0.283-0.645,0.42-1.308,0.614-1.971c0.088-0.283-0.204-0.693,0.049-0.946c0.752-0.741,0.781-1.824,0.771-2.81
					c0-0.565,0.409-1.034,0.487-1.59c0.02-0.205-0.186-0.342-0.225-0.508c-0.029-0.116,0.595-0.722,0.683-0.926
					c0.479-1.103,0.918-2.176,1.2-3.326c0,0,1.298-4.42,2.907-8.058c1.59-3.736,3.385-6.429,3.385-6.429
					c0.117-0.312,0.585-0.303,0.771-0.517c0.303-0.342,1.005-0.819,1.024-0.878c0.293-0.752,0.663-1.249,1.092-1.619
					c0.068-0.068,0.596-0.449,0.869-0.42c0.204,0,0.526-1.044,0.663-0.81c0.438,0.37,1.083,0.653,1.181,0.614
					c0.077-0.01,0.126-0.107,0.194-0.176c0.195-0.166,0.469-0.263,0.78-0.078l0.068,0.029c0.868-0.059,1.717-0.117,2.546-0.175
					l0.596-0.029l1.189-0.137c0.264,0,1.688-0.644,2.487-0.634c3.142-0.068,5.707-1.259,7.921-2.537
					c1.278-0.799,2.829-1.238,4.165-2.165c0.449-0.331,0.518-0.653,0.83-0.976c0.185-0.176,2.253-1.073,2.73-1.482
					c2.741-2.049,5.189-4.438,6.965-7.062c0.088-0.127,2-2.673,3.717-6.312c1.775-3.657,3.189-8.232,3.941-12.35
					c0.78-4.155,1.043-7.921,1.131-10.671c0.088-2.741,0.02-4.497,0.02-4.585c-0.088-0.673,0.283-1.308,0.303-1.971
					c0.039-0.985,0.127-3.053,0.137-3.268c-0.215-1.142-0.293-2.146-0.42-3.181c0.391-0.644,0.762-1.316,1.073-1.931
					c1.073-2.049,2-4.009,3.034-5.727c0.624-1.034,1.033-2.048,1.492-3.111c0.195-0.438,0.049-1.073,0.391-1.454
					c1.033-1.199,1.385-2.906,1.561-4.408c0.088-0.849,0.624-1.629,0.79-2.508c0.049-0.302-0.137-0.478-0.166-0.74
					c-0.02-0.146,0.712-1.21,0.81-1.522c0.604-1.785,1.073-3.541,1.336-5.355c0.01-0.087,0.264-1.823,0.645-4.38
					c0.321-2.526,0.644-5.843,0.829-9.101c0.165-3.239,0.224-6.448,0.204-8.838c-0.049-2.38-0.088-3.979-0.097-4.077
					c-0.078-0.625,0.292-1.2,0.292-1.814C422.572,253.3,422.66,251.339,422.67,251.144z M420.056,250.725
					c-0.01,0.321-0.078,2.224-0.098,2.887c-0.049,0.586,0.264,7.16-0.049,14.008c-0.233,6.828-1.326,13.988-1.443,14.623
					c-0.02,0.331-0.049,2.175-0.205,2.691c-0.741,2.508-2.829,8.253-3.043,8.633c-0.927,2.449-1.775,4.731-2.712,7.229
					c0,0-1.249,2.332-2.497,4.487c0-0.478-0.976,1.21-1.181,1.961c-0.01,0.01-0.029,0.049-0.039,0.068
					c-0.127,0.204-1.971,6.136-1.336,5.491c0.253-0.272,0.458-0.526,0.702-0.79c-0.02,0.41-0.078,2.293-0.098,2.985
					c-0.107,0.644,0.468,7.569-0.858,16.018c-0.653,4.185-1.941,8.817-3.688,12.603c-1.658,3.775-3.717,6.546-3.999,6.975
					c-0.234,0.458-2.01,3.073-2.731,3.697c-1.678,1.609-4.78,3.989-7.745,5.54c-2.976,1.57-5.541,2.352-5.833,2.449
					c-1.775,0.634-4.352,1.229-6.595,1.668l-1.561,0.292l-0.702,0.156l-0.166,0.029l-0.088,0.02l-2.068,0.137l0,0h-0.01
					l-0.107,0.039c0,0-0.945-0.146-1.326,0.01c-0.391,0.146-0.868,0.039-1.453,0.029c-0.312,0.175-1.405,0.282-1.483,0.292
					c-0.194-0.01-0.146,0.342-0.233,0.469c-0.146,0.176-0.381,0.342-0.371,0.614c0.068,0.946-0.976,0.771-1.561,1.229
					c-0.117,0.107-0.819,0.712-1.063,0.937c-0.215,0.126-2.321,3.023-4.116,7.13c-1.834,4.01-3.189,8.77-3.268,9.17
					c-0.049,0.225-0.078,1.473-0.234,1.805c-0.78,1.58-2.205,5.375-2.264,5.639c-0.556,1.561-0.8,3.189-1.014,4.838
					c0,0-0.85,2.8-1.083,4.341c-0.264,1.531-0.79,3.131-1.308,4.683c0,0,0,0,0,0.01c0,0,0,0,0,0.01
					c-0.176,1.229-1.023,3.628-1.062,3.726c-0.166,0.352,0.088,0.731,0.088,1.093c0.01,0.498-0.107,1.044,0.077,1.424
					c0.42,0.897,0.137,1.561-0.194,2.498l-0.186,0.731l-0.176,0.722l-0.127,0.526c-0.088,0.4-0.575,2.634-0.741,3.424
					c-0.166,0.644-1.434,8.331-4.214,15.491c-2.595,7.228-6.487,13.705-6.789,14.271c-0.176,0.303-0.869,2.049-1.2,2.478
					c-1.658,2.137-5.589,6.565-5.853,6.809c-1.629,1.717-3.054,3.59-4.565,5.375c-0.029,0.029-3.024,2.81-4.575,4.264
					c-1.58,1.463-3.453,2.828-5.355,3.999c-1.248,1.132-4.341,2.741-4.457,2.8c-0.469,0.185-0.674,0.731-1.063,1.043
					c-0.498,0.439-1.171,0.84-1.454,1.308c-0.906,1.58-2.877,1.844-4.331,2.585c-0.302,0.195-2.126,1.18-2.741,1.453
					c-0.546,0.283-6.633,3.99-13.188,6.896c-6.517,2.956-13.472,5.043-14.086,5.199c-0.312,0.107-1.941,0.897-2.468,0.976
					c-2.595,0.391-8.38,1.015-8.74,1.015c-2.351,0.156-4.653,0.586-6.984,0.878c-0.049,0-4.171,0.039-6.346,0.059
					c-2.209,0-4.556-0.273-6.794-0.722c-1.717-0.029-5.097-0.966-5.233-1.005c-0.483-0.195-1,0.059-1.512,0.039
					c-0.678-0.029-1.458-0.215-1.975-0.049c-1.771,0.517-3.395-0.663-4.985-1.122c-0.351-0.068-2.366-0.624-2.995-0.858
					c-0.6-0.155-7.623-1.717-14.364-4.165c-6.746-2.409-13.159-5.688-13.706-5.97c-0.302-0.146-2.019-0.692-2.448-0.995
					c-2.107-1.492-6.672-4.975-6.94-5.219c-1.8-1.473-3.727-2.712-5.604-4.058c-0.029-0.029-3.029-2.761-4.604-4.185
					c-1.61-1.454-3.107-3.22-4.458-5.034c-1.249-1.161-3.136-4.185-3.205-4.292c-0.239-0.448-0.78-0.644-1.141-1.015
					c-0.488-0.487-0.956-1.141-1.449-1.395c-1.678-0.81-2.078-2.849-2.975-4.272c-0.2-0.322-1.278-2.137-1.658-2.761
					c-0.317-0.536-4.604-6.652-7.721-13.666c-3.268-6.926-5.117-14.593-5.292-15.228c-0.122-0.342-0.8-2.175-0.854-2.741
					c-0.049-0.604-0.117-1.316-0.186-1.989l-0.034-0.762c-0.01-0.282-0.02-0.526-0.029-0.74c-0.078-2.088-0.146-4.068-0.161-4.244
					c-0.098-1.668-0.487-3.307-0.927-4.926c0,0-0.288-2.956-0.648-4.468c-0.351-1.512-0.458-3.18-0.58-4.8l0,0
					c-0.308-1.17-0.439-3.696-0.43-3.794c0.029-0.381-0.361-0.624-0.497-0.956c-0.2-0.439-0.303-0.995-0.62-1.258
					c-1.048-0.898-0.629-2.322-0.858-3.473c-0.063-0.234-0.41-1.61-0.532-2.098c-0.078-0.42-1.917-5.092-4.155-8.926
					c-2.229-3.932-4.653-6.506-4.863-6.633c-0.122-0.117-0.922-0.449-1.029-0.635c-0.59-1.043-1.931-2.536-1.931-2.536
					c-0.498-0.507-1.088-0.663-1.585-0.712c0,0-0.678-0.526-1.098-0.556c-0.132-0.02-0.62-0.127-0.463-0.205
					c0.283-0.088-0.2-0.244-2.068-0.478c-2.497-0.029-7.892-1.805-8.102-1.98c-0.766-0.381-1.644-0.371-2.473-0.635
					c-1.122-0.302-2.36-0.926-3.258-1.141c-3.029-0.615-5.414-3.248-7.473-5.307c-0.541-0.4-2.965-3.092-3.633-4.038
					c-0.273-0.41-2.468-2.985-4.409-6.663c-1.995-3.668-3.594-8.232-4.565-12.408c-1.927-8.418-1.878-15.49-1.995-16.134
					c-0.029-0.331-0.38-2.077-0.322-2.595c0.322-3.424,0.731-3.951,0.771-4.419c0.088-0.741,0.297-1.57-0.322-2.126
					c-0.01-0.01-0.629-1.132-0.946-1.717c-0.093-0.156-0.181-0.322-0.249-0.508c-0.209-0.497-0.438-1.005-0.673-1.531
					c-0.468-1.171-0.878-2.342-1.224-3.502c-0.8-1.668-1.561-5.248-1.571-5.395c-0.059-0.526-0.487-0.897-0.707-1.375
					c-0.292-0.645-0.492-1.415-0.849-1.834c-1.239-1.395-0.932-3.385-1.209-4.994c-0.063-0.361-0.429-2.361-0.561-3.063
					c-0.088-0.614-1.775-7.491-2.668-14.241c-0.946-6.761-1.307-13.403-1.365-13.969c-0.02-0.303-0.42-1.922-0.391-2.4
					c0.229-2.468,0.707-7.701,0.746-8.033c0.22-2.156,0.21-4.321,0.254-6.521c0.01-0.039,0.546-3.887,0.839-5.911
					c0.249-2.078,0.829-4.278,1.536-6.414c0.249-1.648,1.6-4.994,1.668-5.116c0.239-0.458,0.078-1.029,0.171-1.546
					c0.117-0.703,0.391-1.478,0.327-2.049c-0.229-1.897,1.19-3.517,1.96-5.165c0.151-0.361,1.117-2.507,1.507-3.194
					c0.132-0.239,1.097-2.537,2.546-5.248c0.341-0.907,1.17-1.854,1.609-2.883c-0.142-1.249-0.41-2.448-0.551-3.36
					c-0.137-0.288-0.337-3.375-0.337-3.375c-0.029-0.317-0.429-2.078-0.38-2.604c0.161-2.546,0.927-8.672,1.058-9.121
					c0.4-2.707,0.761-5.224,1.171-7.989c0,0,1.404-4.877,2.707-7.785c1.175-2.848,3.004-5.872,5.55-8.691
					c1.522-2.365,6.575-6.121,6.853-6.141c0.8-0.419,1.341-1.16,2.068-1.697c0.971-0.771,2.249-1.341,2.927-1.96
					c2.419-2.078,5.365-2.278,8.862-2.863c0.117-0.02,2.087-0.391,2.326-0.352c0.6-0.059,1.161-0.088,1.448-0.112
					c0.288-0.02,1.22-0.107,2.707-0.229c0.239-0.01,0.532-0.078,0.829-0.156c0.629-0.195,1.278-0.474,2-0.99
					c1.414-0.902,3.395-3.419,3.502-3.717c0.083-0.112,0.292-0.99,0.483-1.151c0.917-0.736,2.887-3.224,2.985-3.453
					c0.78-1.078,1.288-2.371,1.761-3.726c0,0,1.268-2.19,1.746-3.526c0.488-1.308,1.249-2.648,2-3.985
					c0.336-1.078,1.556-3.219,1.614-3.317c0.219-0.302,0.02-0.712,0.073-1.058c0.068-0.483,0.268-1,0.146-1.4
					c-0.419-1.317,0.693-2.326,1.112-3.448c0.078-0.249,0.537-1.648,0.688-2.146c0.17-0.419,1.151-5.575,1.707-10.828
					c0.292-2.614,0.502-5.253,0.59-7.15c0.029-2.029,0.059-3.458,0.059-3.707c0-0.361-0.229-2.288-0.078-2.849
					c0.468-2.765,1.946-8.76,2.117-9.111c0.668-2.385,1.18-4.77,1.79-7.15c0.02-0.049,1.585-4.004,2.415-6.092
					c0.83-2.088,2.039-4.195,3.327-6.126l0,0c0.702-1.615,2.989-4.434,3.058-4.541c0.361-0.39,0.361-0.971,0.59-1.419
					c0.307-0.629,0.781-1.292,0.849-1.838c0.249-1.868,2.019-2.907,3.087-4.205c0.21-0.302,1.565-1.951,2.049-2.448
					c0.399-0.488,4.76-6.365,9.876-11.506c5.034-5.224,10.809-9.594,11.267-9.999c0.258-0.209,1.498-1.521,1.96-1.78
					c2.234-1.307,7.341-3.946,7.691-4.067c2.054-1.059,4.034-2.185,6.024-3.366c0.039-0.019,3.755-1.546,5.711-2.355
					c1.946-0.878,4.194-1.429,6.365-1.917c1.566-0.59,5.024-1.102,5.161-1.112c0.512-0.01,0.892-0.419,1.36-0.595
					c0.629-0.244,1.41-0.4,1.839-0.751c1.395-1.18,3.375-0.712,5.014-0.937c0.361-0.044,2.405-0.302,3.126-0.39
					c0.61-0.093,7.75-1.449,15.144-1.731c7.404-0.4,14.71,0.502,15.344,0.532c0.332,0.029,2.166-0.049,2.684,0.078
					c2.574,0.619,8.125,2.316,8.467,2.468c2.233,0.678,4.448,1.278,6.711,1.839c0.039,0.01,3.775,1.536,5.746,2.336
					c2.009,0.751,3.979,1.941,5.882,3.107c1.521,0.688,4.341,2.717,4.429,2.839c0.37,0.346,0.936,0.317,1.404,0.517
					c0.614,0.269,1.268,0.688,1.805,0.742c1.824,0.151,2.888,1.849,4.204,2.814c0.293,0.22,1.902,1.449,2.478,1.878
					c0.508,0.361,6.478,4.336,11.939,9.111c5.492,4.746,10.331,10.34,10.73,10.837c0.215,0.249,1.639,1.449,1.922,1.907
					c1.453,2.229,4.399,7.404,4.536,7.765c1.112,2.126,2.448,4.102,3.648,6.199c0.01,0.044,1.678,3.926,2.546,5.975
					c0.888,2.068,1.531,4.414,1.98,6.731c0.614,1.668,1.062,5.326,1.033,5.487c0.01,0.537,0.42,0.961,0.605,1.458
					c0.243,0.668,0.36,1.507,0.673,1.975c1.073,1.59,0.644,3.536,0.731,5.584c0.02,0.351,0.283,3.048,0.234,3.536
					c0,0.878,0.438,5.565,1.492,10.818c0.985,5.195,2.37,10.238,2.526,10.647c0.078,0.229,0.731,1.371,0.78,1.741
					c0.195,1.848,0.937,5.833,1.024,6.062c0.331,1.59,0.956,3.043,1.629,4.462c0,0,0.692,2.648,1.278,3.907
					c0.556,1.277,0.916,2.697,1.287,4.058l0,0c0.479,0.937,1.005,2.976,1.024,3.063c0.029,0.321,0.438,0.409,0.634,0.629
					c0.254,0.312,0.449,0.702,0.79,0.819c1.112,0.371,0.956,1.58,1.347,2.336c0.088,0.161,0.624,1.01,0.81,1.303
					c0.107,0.278,2.595,2.765,4.253,3.263c0.839,0.312,1.502,0.4,2.078,0.38c0.517,0.029-0.059-0.097,0.282-0.068
					c0.712-0.01,1.181-0.01,1.317-0.01c1.121,0.02,3.463-0.049,4.409,0.136c2.038,0.444,5.462,1.419,8.418,2.799
					c2.966,1.4,5.277,3.005,5.541,3.239c3.512,2.434,6.623,5.331,9.032,8.35c0,0,1.015,1.385,1.98,3.156
					c1.073,1.794,1.99,3.897,2.614,5.292c1.278,2.849,1.844,5.766,2.233,8.501c0.518,2.009,0.635,5.975,0.566,6.082
					c-0.049,0.561,0.312,1.048,0.438,1.6c0.146,0.731,0.166,1.561,0.439,2.077c0.907,1.698,0.156,3.614,0.059,5.292
					c-0.02,0.361-0.127,2.4-0.156,3.117c0,0.312-0.02,2.058-0.049,4.614c0.029,0.941,0.068,2.161,0.098,3.38
					c0.36,1.166,1.434,1.839,1.922,2.853c1.103,1.883,2.292,4.399,2.36,4.507c0.166,0.322,1.238,1.917,1.395,2.458
					c0.849,2.639,2.293,8.331,2.322,8.682c0.536,2.288,1.209,4.453,1.863,6.644c0,0.039,0.634,3.921,0.965,5.96
					c0.391,2.039,0.459,4.258,0.439,6.375l0,0c0.244,1.585,0.029,4.882-0.02,5.004c-0.078,0.468,0.254,0.897,0.342,1.37
					c0.127,0.625,0.137,1.356,0.37,1.805C420.895,247.476,420.153,249.197,420.056,250.725z"/>
				<path fill="gray" d="M249.485,500.454c-1.146,0-5.331-0.546-6.882-1.366c-0.352-0.029-1.02,0-1.678,0.01
					c-0.532,0.01-1.068,0.029-1.536,0.029c-0.858,0-1.303-0.039-1.629-0.146c-0.858-0.214-3.107-0.624-3.346-0.653l-0.321-0.049
					c-1.785-0.253-3.487-0.497-5.331-0.585c0,0,0,0-0.01,0c-0.244,0-0.512-0.078-1.829-0.508c-0.58-0.194-1.21-0.39-1.639-0.507
					c-0.43-0.127-0.78-0.312-1.088-0.478c-0.244-0.127-0.463-0.244-0.619-0.264l-4.395-1.122c-2.268-0.634-5.648-1.678-9.053-2.975
					c-3.048-1.151-6.233-2.497-8.74-3.727c-2.355-1.171-3.936-1.961-4.014-2c-1.488-0.702-3.058-1.678-4.697-2.916
					c-0.209-0.146-0.429-0.4-0.771-0.78c-0.049-0.059-0.098-0.107-0.146-0.166h-0.01c-0.351,0-0.57-0.059-0.771-0.166
					c-0.429-0.234-0.8-0.537-1.161-0.819c-0.288-0.244-0.546-0.458-0.775-0.565c-1.239-0.488-3.039-1.356-4.039-2.995
					c-0.2,0.059-0.575-0.078-0.888-0.332c-0.839-0.653-1.629-1.307-2.375-2.067c-1.049-1.054-2.341-2.166-3.946-3.375
					c-0.522-0.381-1.102-0.84-1.581-1.278c-0.761-0.634-3.575-3.96-4.175-5.657c-0.249-0.254-0.771-0.693-1.297-1.151
					c-1.332-1.161-1.941-1.707-2.209-2.155c-0.468-0.762-1.878-2.596-2.068-2.811l-0.527-0.653
					c-1.068-1.307-2.078-2.536-3.277-3.765c-0.298-0.439-1.429-2.342-1.946-3.248c-0.244-0.342-0.38-0.791-0.493-1.142
					c-0.078-0.254-0.161-0.498-0.249-0.614l-0.298-0.459c-0.399-0.604-1.249-1.883-2.248-3.648
					c-1.249-2.137-3.068-5.463-4.585-9.043c-1.561-3.512-2.79-7.208-3.546-9.695l-1.258-4.731c-0.483-1.766-0.659-3.355-0.893-5.355
					l-0.068-1.277l0.02-0.479c0.019-0.194,0.048-0.341,0.083-0.468c-0.092-0.137-0.17-0.283-0.209-0.459
					c-0.122-0.419-0.112-0.81-0.103-1.121c0-0.127,0.01-0.332-0.01-0.391c-0.342-0.8-0.897-2.078-0.532-3.463
					c-0.117-0.215-0.229-0.439-0.258-0.731l-0.049-0.41c-0.078-0.614-0.161-1.199-0.161-1.843c0-0.898-0.19-1.951-0.609-3.327
					l-0.381-1.277c-0.156-0.702-0.419-3.619-0.049-5.063c-0.098-0.272-0.278-0.653-0.458-1.033c-0.459-1.024-0.678-1.521-0.688-1.98
					c0-0.469-0.302-1.736-0.41-2.088c-0.341-1.199-0.79-2.233-1.419-3.297l-0.142-0.352l-0.507-2.136
					c-0.103-0.282-0.093-0.644-0.083-0.917c-0.029-0.244-1.795-4.429-3.736-7.628c-1.907-3.297-3.902-5.365-3.922-5.385
					c-0.57-0.556-1.039-1.132-1.458-1.805c-0.024-0.02-0.044-0.049-0.054-0.078c-0.2-0.098-0.336-0.224-0.449-0.36
					c-0.4-0.049-0.8-0.176-1.117-0.557c-0.029-0.039-0.059-0.078-0.093-0.117l-0.19-0.166c-0.049-0.028-0.137-0.087-0.239-0.175
					h-0.039c-0.02,0-0.049,0-0.078,0h-0.029h-1.058l-0.225-0.78l-0.556-0.205c-0.581-0.039-0.902-0.117-1.239-0.312l-0.103-0.02
					c-0.317-0.059-0.976-0.088-1.766-0.137l-1.209-0.078c-1.717-0.175-4.054-0.565-4.854-0.867c-0.054-0.02-5.574-2.176-6.365-2.78
					c-2.785-1.308-5.741-3.2-9.091-5.843c-0.498-0.303-3.302-3.648-4.131-4.927c-0.361-0.478-0.664-1.063-0.971-1.658
					c-0.22-0.429-0.43-0.849-0.688-1.22l0.029-0.029c-1.96-2.272-6.404-11.764-7.365-18.318c-0.658-3.19-1.137-6.741-1.404-10.486
					l-0.229-4.546c-0.122-1.795,0.02-3.932,0.22-5.238c0.02-0.146,0.059-0.264,0.107-0.371l-0.151-0.399l0.112-0.352
					c-0.332-0.663-0.239-1.219-0.009-1.639c0-0.117,0-0.205,0.019-0.293l-0.068-0.146l0.039-0.165c0,0-0.073-0.146-0.43-0.498
					c-0.181-0.146-0.371-0.341-0.512-0.556l-1.078-2.79c-0.229-0.634-0.878-2.653-0.878-3.833c-0.142-0.342-0.478-0.957-0.829-1.62
					c-0.922-1.717-1.297-2.478-1.371-3.023c-0.126-0.712-0.59-2.215-0.81-2.966l-0.146-0.497c-0.629-1.99-1.219-3.648-1.897-5.316
					l-0.629-3.541c-0.083-0.419-0.063-0.829-0.044-1.142c0.01-0.244,0.034-0.487-0.01-0.614l-0.946-4.351
					c-0.513-2.536-1.039-5.795-1.449-8.965c-0.429-3.229-0.702-6.408-0.878-8.818l-0.234-3.823c-0.146-1.805-0.117-3.443,0.073-5.37
					c0.02-0.264,0.117-0.551,0.258-0.99c0.01-0.029,0.02-0.073,0.029-0.112c-0.107-0.171-0.209-0.419-0.239-0.717
					c-0.039-0.521,0.01-0.971,0.068-1.371c0.054-0.327,0.083-0.61,0.054-0.81c-0.253-1.317-0.463-3.034,0.22-4.555
					c-0.093-0.366-0.171-0.678-0.122-1.039l0.059-0.658c0.073-0.756,0.142-1.498,0.312-2.288c0.327-1.497,0.448-3.233,0.526-4.872
					l0.142-1.858c0.103-1.141,1.249-5.233,2.219-6.633c0.068-0.352,0.126-1.01,0.2-1.688c0.181-1.81,0.278-2.648,0.517-3.137
					c0.292-0.648,0.742-2.116,0.98-2.917l0.19-0.59c0.547-1.877,1.088-3.794,1.629-5.965c0.039-0.2,0.126-0.419,1.175-2.507
					l0.6-1.219c0.21-0.41,0.469-0.756,0.742-1.107c0.219-0.288,0.419-0.552,0.517-0.81l1.551-3.156
					c0.02-0.268,0.337-0.688,0.59-1.029l0,0l-0.39-5.765c-0.161-2.005-0.122-3.853,0.098-5.921c0.02-0.249,0.132-0.6,0.292-1.127
					c0.02-0.073,0.049-0.151,0.068-0.225c-0.103-0.156-0.219-0.429-0.239-0.795c-0.029-0.58,0.048-1.102,0.126-1.561
					c0.063-0.39,0.122-0.756,0.093-1.049c-0.161-1.458-0.258-3.633,0.717-5.482c-0.02,0.049-0.039-0.102-0.058-0.209
					c-0.029-0.283-0.068-0.639,0.01-1.029c0.219-1.171,0.478-2.429,0.887-3.697l2.239-7.243c0.259-0.756,0.532-1.576,0.849-2.297
					c0.498-1.59,4.565-7.599,6.711-8.94c0.181-0.19,0.474-0.561,0.839-1.029c0.4-0.498,0.873-1.088,1.38-1.698
					c1.38-1.639,3.185-3.307,3.833-3.746c1.141-0.761,5.458-3.385,6.277-3.604c2.844-1.458,5.712-2.668,10.408-3.877l3.093-0.297
					l3.287-0.2l0.093,0.098c0.229-0.117,0.487-0.288,0.756-0.517c0.741-0.522,2-2.029,2.36-2.507l0.088-0.151
					c0.43-0.668,0.98-1.249,1.648-1.936c0.088-0.093,0.19-0.171,0.298-0.234c0.015-0.059,0.034-0.117,0.054-0.176
					c0.181-0.429,0.419-0.702,0.59-0.868c0.156-0.58,0.376-1.751,1.346-2.497c0.02-0.181,0.078-0.371,0.181-0.561l0.249-0.43
					c0.22-0.399,0.439-0.8,0.751-1.189c0.42-0.562,0.775-1.347,1.098-2.488l0.332-1.117c0.239-0.62,1.498-2.956,2.556-3.937
					c0.049-0.268,0.097-0.648,0.151-1.039c0.136-1.068,0.209-1.6,0.439-1.99c0.249-0.391,0.658-1.629,0.746-1.956
					c0.342-1.19,0.522-2.365,0.571-3.648l0.059-0.336l0.741-2.209c0.078-0.317,0.278-0.629,0.429-0.849
					c0.132-0.307,0.971-5.146,1.458-9.867c0.249-2.351,0.449-4.726,0.527-6.365l-0.02-0.039l0.054-1.649l0.059-1.458
					c-0.02-1.897,0.307-3.736,0.736-5.912c0.054-0.302,0.209-0.673,0.463-1.249c0.02-0.063,0.049-0.122,0.078-0.18
					c-0.078-0.142-0.18-0.454-0.151-0.829c0.039-0.522,0.18-1,0.312-1.468c0.107-0.41,0.21-0.761,0.21-1.054
					c0-2.205,0.419-3.892,1.287-5.17c-0.068-0.351-0.087-0.741,0.059-1.141l0.151-0.458c0.278-0.897,0.561-1.766,0.951-2.658
					c0.785-1.868,1.395-3.565,1.868-5.194c0.186-0.668,0.448-1.385,0.697-2.004c0.38-1.078,2.658-4.956,4.024-6.097
					c0.161-0.327,0.4-0.946,0.659-1.595c0.702-1.722,1.039-2.517,1.39-2.917c0.581-0.741,1.858-2.658,2-2.897l0.546-0.902
					c0.829-1.346,1.639-2.653,2.4-4.151c0.039-0.161,0.2-0.351,1.239-1.521c0.41-0.458,0.849-0.946,1.137-1.297
					c0.282-0.352,0.6-0.59,0.878-0.81c0.224-0.17,0.434-0.322,0.512-0.458l2.888-3.629c1.238-1.449,3.687-4.243,6.569-7.092
					c2.249-2.195,4.849-4.536,7.136-6.418c2.049-1.639,3.424-2.731,3.492-2.79c1.609-1.239,3.151-2.229,4.716-3.058
					c0.229-0.117,0.542-0.209,1.039-0.356c0.058-0.02,0.131-0.029,0.19-0.054c0.088-0.19,0.239-0.419,0.507-0.629
					c0.434-0.337,0.883-0.556,1.283-0.747c0.327-0.161,0.62-0.302,0.81-0.463c1.259-1.098,2.644-2.185,4.414-2.356
					c0.088-0.239,0.337-0.488,0.707-0.659l0.449-0.219c0.78-0.39,1.541-0.761,2.37-1.049c1.317-0.419,2.595-1.068,3.965-1.766
					l2.424-1.2c1.141-0.561,4.994-1.458,6.584-1.458l0.4,0.02c0.2-0.092,0.878-0.419,1.59-0.741c1.536-0.697,2.204-0.99,2.697-1.039
					c0.785-0.068,2.556-0.498,3.395-0.708c1.975-0.532,3.653-0.98,5.414-1.639l0.307-0.068l3.356-0.371
					c0.351-0.039,0.771-0.01,1.18,0.01c0.161,0.01,0.312,0.029,0.468,0.029l4.785-0.708c1.868-0.234,5.585-0.629,9.779-0.731
					c3.268-0.068,6.726,0.01,9.799,0.239l0.556,0.053c2.263,0.205,3.794,0.347,3.95,0.366c2.156,0.239,3.99,0.6,5.648,1.102
					c0.195,0.059,0.604,0.259,0.995,0.458c0.059,0.029,0.137,0.068,0.194,0.098c0.176-0.059,0.391-0.117,0.625-0.117
					c0.751,0.068,1.238,0.229,1.668,0.375c0.352,0.122,0.653,0.225,0.897,0.244c1.355,0.087,3.395,0.219,4.857,1.424
					c0.342-0.107,0.644-0.107,0.976,0.024l0.566,0.181c0.818,0.258,1.609,0.527,2.399,0.907c1.19,0.609,2.546,1.039,3.97,1.497
					l2.702,0.897c1.083,0.361,4.839,2.59,5.911,3.819c0.352,0.166,1.005,0.4,1.688,0.639c1.59,0.581,2.273,0.839,2.663,1.156
					c0.663,0.551,2.517,1.649,2.858,1.829c1.385,0.81,3.033,1.731,4.984,2.609l0.508,0.356l2.38,1.858
					c0.342,0.244,0.624,0.571,0.839,0.839c0.166,0.2,0.322,0.39,0.439,0.449c0.137,0.093,1.58,1.112,3.706,2.629
					c1.513,1.132,4.448,3.409,7.443,6.111c2.409,2.17,4.926,4.648,6.887,6.813c1.814,1.971,3.043,3.439,3.043,3.439
					c1.298,1.487,2.409,3.024,3.356,4.672c0.126,0.219,0.233,0.542,0.419,1.029c0.02,0.073,0.049,0.141,0.068,0.209
					c0.195,0.083,0.458,0.229,0.692,0.512c0.352,0.419,0.596,0.888,0.81,1.288c0.166,0.336,0.312,0.629,0.488,0.819
					c1.219,1.268,2.36,2.697,2.604,4.521c0.282,0.131,0.536,0.38,0.712,0.731c0.478,0.858,1.005,1.849,1.404,2.985
					c0.508,1.38,1.229,2.8,1.98,4.297l1.229,2.439c0.409,0.965,1.668,5.453,1.463,7.311c0.117,0.332,0.361,0.907,0.634,1.536
					c0.78,1.829,1.122,2.697,1.122,3.297c0.049,0.551,0.293,1.761,0.458,2.609c0.107,0.556,0.186,0.985,0.195,1.107l1.425,6.141
					c0.106,0.361,0.204,3.688,0.185,3.946c0.02,0.283-0.068,0.639-0.136,0.941c-0.029,0.107-0.078,0.278-0.078,0.341l0.634,2.575
					l-0.361-0.18c0.692,4.136,2.468,13.037,3.132,15.515h0.029l0.233,0.775c0.42,1.312,0.634,2.619,0.81,3.829
					c0.029,0.22,0.01,0.439-0.02,0.717c0.098,0.112,0.215,0.249,0.293,0.42c0.176,0.429,0.225,0.81,0.273,1.107
					c0.01,0.132,0.039,0.322,0.068,0.38c0.438,0.702,1.16,1.849,1.023,3.209c0.156,0.18,0.283,0.39,0.352,0.668l0.137,0.458
					c0.166,0.512,0.303,1.01,0.381,1.561c0.126,0.795,0.448,1.697,1.033,2.765c0.186,0.352,0.4,0.741,0.557,1.059
					c0.253,0.59,0.906,2.927,0.829,4.326c0.136,0.19,0.351,0.419,0.536,0.648c0.634,0.737,0.907,1.088,1.005,1.527
					c0.059,0.302,0.448,1.058,0.604,1.312c0.469,0.766,0.985,1.307,1.58,1.727l0.342,0.352c0.049,0.087,0.537,0.897,0.761,1.277
					c0.146,0.151,0.205,0.439,0.244,0.668c0.546,0.458,1.824,1.39,2.253,1.468c0.02,0,0.049,0.01,0.068,0.02l1.971,0.01
					c3.375,0.122,6.126,0.59,9.315,1.59c0.332,0.068,0.927,0.371,1.873,0.858c0.332,0.171,0.624,0.327,0.771,0.39l0.352-0.063
					c0.303,0,0.595,0.044,0.868,0.131c0.956,0.269,1.814,0.751,2.644,1.2c0.546,0.298,1.072,0.6,1.629,0.819
					c1.893,0.756,5.316,2.424,7.248,5.111c0.117,0.171,0.429,0.371,0.741,0.571c0.38,0.249,0.819,0.532,1.161,0.932
					c1.17,1.249,2.545,2.707,3.55,4.355c1.552,2.317,3.063,4.873,4.497,7.55c0.479,0.849,0.878,1.746,1.249,2.595
					c0.79,1.58,1.94,7.135,1.629,9.042c0.068,0.371,0.282,1.087,0.517,1.868c0.625,2.176,0.888,3.127,0.819,3.727
					c0,0.707,0.117,2.326,0.186,3.185l0.039,0.62c0.186,2.229,0.39,4.034,0.673,5.804c0,0.478-0.127,2.604-0.195,3.595
					c-0.01,0.419-0.136,0.819-0.224,1.141c-0.059,0.209-0.127,0.449-0.117,0.556l0.039,2.771c0.02,0.195,0.029,0.517,0.039,0.849
					c0.01,0.39,0.02,0.8,0.059,1.204l0.282,0.342c0.449,0.541,0.83,1,1.288,1.79c1.229,2.224,2.165,4.282,2.165,4.282
					c0.83,1.639,1.493,3.419,2.078,5.555c0.068,0.258,0.098,0.61,0.137,1.156c0,0.073,0.01,0.151,0.01,0.215
					c0.166,0.117,0.381,0.336,0.526,0.678c0.215,0.488,0.332,0.98,0.42,1.419c0.078,0.366,0.146,0.688,0.263,0.907
					c0.781,1.449,1.532,3.156,1.288,4.926c0.225,0.127,0.409,0.429,0.497,0.819l0.117,0.526c0.186,0.839,0.361,1.659,0.449,2.517
					c0.146,1.668,0.575,3.419,0.966,4.936l0.419,1.81c0.215,0.985,0.371,5.102-0.146,6.73c0.049,0.361,0.205,0.961,0.352,1.59
					c0.381,1.604,0.526,2.307,0.459,2.814c-0.068,0.59,0,2,0.02,2.678c0.01,0.288,0.02,0.487,0.02,0.57
					c0.097,1.639,0.302,3.264,0.634,5.029l-0.137,3.346c0,0.399-0.107,0.79-0.195,1.092c-0.049,0.195-0.117,0.42-0.098,0.508
					c0.01,0.176,0.049,1.795,0.098,4.204c0.029,2.526-0.039,5.784-0.205,8.936c-0.175,3.043-0.478,6.398-0.829,9.188l-0.653,4.419
					c-0.234,1.697-0.673,3.482-1.376,5.551c-0.067,0.233-0.243,0.556-0.536,1.034c-0.039,0.067-0.068,0.126-0.107,0.194
					c0.068,0.205,0.117,0.508,0.049,0.858c-0.088,0.537-0.292,1.015-0.458,1.443c-0.156,0.361-0.283,0.703-0.312,0.977
					c-0.195,1.609-0.585,3.618-1.854,5.092c0,0.448-0.039,0.79-0.195,1.141l-0.165,0.391c-0.4,0.937-0.819,1.893-1.415,2.867
					c-0.683,1.151-1.326,2.43-2,3.756l-0.984,1.912c-0.264,0.508-0.576,1.073-0.897,1.629l0.039,0.342
					c0.078,0.741,0.165,1.502,0.321,2.331l-0.117,3.541c0,0.419-0.117,0.8-0.204,1.132c-0.068,0.254-0.127,0.497-0.107,0.634
					l-1.288,0.176l1.249,0.166c0.01,0.546,0.039,2.155-0.029,4.438c-0.146,3.931-0.526,7.481-1.151,10.866
					c-0.81,4.399-2.292,9.023-4.058,12.661c-1.697,3.629-3.629,6.233-3.834,6.517c-1.736,2.575-4.175,5.053-7.218,7.307
					c-0.312,0.263-0.976,0.604-1.932,1.083c-0.361,0.175-0.674,0.321-0.81,0.409c-0.166,0.321-0.4,0.653-0.839,0.976
					c-0.849,0.595-1.707,0.985-2.537,1.355c-0.585,0.273-1.17,0.537-1.697,0.858c-2.292,1.327-5.062,2.653-8.555,2.731
					c-0.351,0-1.102,0.264-1.473,0.391c-0.468,0.156-0.731,0.254-1.024,0.254l-4.614,0.351h-0.01l-0.039,0.059l-0.458,0.117
					c-0.468,0-0.79-0.068-1.132-0.215c-0.233,0.264-0.546,0.438-0.984,0.438c-0.254,0.283-0.537,0.596-0.801,1.249
					c-0.088,0.312-0.341,0.517-0.683,0.78c-0.175,0.146-0.429,0.332-0.565,0.479c-0.264,0.292-0.566,0.419-0.771,0.507
					c-0.546,0.897-1.932,3.181-3.171,6.097c-1.551,3.541-2.838,7.882-2.848,7.921c-0.283,1.132-0.703,2.214-1.249,3.473
					c-0.107,0.205-0.224,0.37-0.39,0.575c0.029,0.146,0.039,0.322,0.02,0.508c-0.068,0.448-0.225,0.79-0.342,1.072
					c-0.049,0.117-0.137,0.303-0.137,0.361c0.01,0.839,0.029,2.215-0.819,3.336c0.029,0.225,0.039,0.498-0.049,0.79l-0.127,0.449
					c-0.146,0.556-0.282,1.093-0.517,1.639c-0.439,1.024-0.605,2.282-0.702,3.268l-0.137,1.337c-0.117,0.712-1.005,3.531-1.883,4.74
					c-0.01,0.303,0,0.731,0.029,1.161c0.029,1.229,0.029,1.727-0.127,2.136c-0.186,0.449-0.399,1.766-0.438,2.146
					c-0.088,0.829-0.107,1.414-0.088,2.321l-0.107,2.888l-0.849,3.834c-0.117,0.468-0.303,0.848-0.459,1.189
					c-0.146,0.273-0.253,0.518-0.272,0.693c-0.02,0.165-0.361,2.146-1.093,4.867c-0.663,2.761-1.824,6.32-3.151,9.773
					c-1.561,3.951-3.326,7.482-4.242,9.219c-1.366,2.419-2.273,4.02-2.312,4.116c-1.083,1.844-2.186,3.405-3.375,4.761
					c-0.166,0.195-0.42,0.399-0.829,0.731c-0.059,0.049-0.117,0.088-0.186,0.137c0,0.214-0.059,0.497-0.234,0.8
					c-0.302,0.497-0.663,0.868-0.966,1.199c-0.263,0.273-0.487,0.498-0.604,0.723c-0.751,1.453-1.727,3.072-3.385,3.892
					c-0.01,0.283-0.156,0.604-0.429,0.888c-0.781,0.888-1.503,1.59-2.283,2.244c-1.336,1.121-2.624,2.497-3.707,3.678l-0.292,0.321
					c-0.361,0.409-0.741,0.829-1.122,1.161c-0.751,0.731-4.243,3.189-5.921,3.648c-0.273,0.214-0.702,0.653-1.161,1.111
					c-1.277,1.269-1.893,1.854-2.39,2.068c-0.731,0.391-2.634,1.648-2.829,1.795c-1.502,1.043-2.975,2.098-4.468,3.375
					c-0.106,0.137-0.331,0.234-1.697,0.917c-0.546,0.263-1.112,0.536-1.492,0.741s-0.761,0.312-1.093,0.4
					c-0.254,0.068-0.497,0.127-0.604,0.204c-0.283,0.176-1.063,0.624-2.292,1.308l-1.648,0.937
					c-2.039,1.073-5.161,2.653-8.565,4.106c-2.994,1.297-6.243,2.526-8.905,3.395c-2.498,0.829-4.312,1.336-4.312,1.336
					c-1.727,0.547-3.531,0.928-5.501,1.151c-0.488,0.02-0.8-0.01-1.093-0.029c-0.068,0-0.137-0.01-0.205-0.01
					c-0.156,0.146-0.399,0.312-0.731,0.42c-0.517,0.146-1.005,0.176-1.434,0.204c-0.381,0.02-0.712,0.039-0.956,0.127
					c-1.19,0.459-3.365,1.054-5.072,0.596c-0.195,0.195-0.518,0.342-0.897,0.37c-0.8,0.078-1.61,0.127-2.438,0.127l-0.771-0.01
					c-1.526-0.029-3.233,0.02-5.301,0.205c-0.732,0.078-1.371,0.137-1.937,0.137h-0.293V500.454z M237.96,493.82
					c0.308,0,0.59,0.049,0.858,0.146c0.581,0.156,3.424,0.897,4.795,0.917c2.497,0.479,4.765,0.722,6.77,0.722
					c2.17-0.02,6.302-0.059,6.351-0.059c0.624-0.088,1.424-0.214,2.204-0.321c1.561-0.225,3.121-0.448,4.692-0.556
					c0.526-0.02,6.097-0.625,8.643-1.005c0.243-0.049,1.151-0.449,1.541-0.625c0.342-0.155,0.604-0.263,0.731-0.302
					c0.888-0.234,7.697-2.312,13.959-5.16c5.375-2.391,10.418-5.316,12.33-6.419c0.43-0.244,0.702-0.409,0.81-0.458
					c0.624-0.264,2.38-1.239,2.644-1.396c0.537-0.282,1.024-0.468,1.541-0.663c1.034-0.4,1.932-0.741,2.361-1.473
					c0.321-0.547,0.829-0.937,1.268-1.269c0.166-0.127,0.312-0.234,0.459-0.36c0.068-0.059,0.156-0.186,0.225-0.273
					c0.233-0.303,0.575-0.761,1.18-1.005c0.215-0.117,3.014-1.6,4.087-2.565c2.117-1.326,3.902-2.663,5.346-3.99
					c1.571-1.473,4.575-4.263,4.614-4.291c0.391-0.479,0.897-1.103,1.414-1.727c0.985-1.21,1.98-2.41,3.054-3.551
					c0.39-0.381,4.175-4.653,5.774-6.712c0.166-0.214,0.576-1.171,0.751-1.57c0.146-0.352,0.283-0.624,0.342-0.741l0.205-0.361
					c3.482-6.058,5.452-10.817,6.506-13.734c2.331-5.97,3.6-12.408,4.019-14.524c0.088-0.449,0.146-0.741,0.176-0.839l1.327-5.727
					c0.282-0.81,0.331-1.004,0.176-1.326c-0.264-0.547-0.234-1.122-0.215-1.58l0.01-0.361c-0.117-0.43-0.264-1.034,0.029-1.658
					c0.088-0.234,0.8-2.293,0.956-3.307l0.146-1.132h0.175c0.391-1.19,0.78-2.468,0.995-3.668c0.234-1.58,1.083-4.37,1.112-4.487
					c0.156-1.355,0.419-3.15,1.034-4.887c0.068-0.322,1.57-4.233,2.321-5.775c0.02-0.106,0.039-0.536,0.068-0.848
					c0.02-0.312,0.049-0.557,0.068-0.664c0.088-0.468,1.492-5.355,3.346-9.423c1.541-3.531,3.863-7.247,4.614-7.696l0.858-0.78
					c0.458-0.361,0.878-0.497,1.181-0.585l0,0c0.068-0.449,0.302-0.771,0.468-0.956c0.312-1.044,1.171-1.093,1.346-1.093
					c0.722-0.088,0.956-0.176,0.956-0.176l0.293-0.166l1.189,0.078c0.469-0.146,1.239-0.166,1.746-0.098l4.546-0.644
					c2.771-0.556,4.985-1.112,6.409-1.629c0.098-0.029,2.663-0.79,5.668-2.37c2.887-1.512,5.892-3.824,7.481-5.336
					c0.595-0.518,2.253-2.917,2.478-3.355l0.215-0.322c1.521-2.156,2.799-4.37,3.775-6.584c1.609-3.531,2.916-8.009,3.579-12.301
					c1.024-6.458,0.897-12.086,0.839-14.496c-0.01-0.829-0.01-1.355,0.02-1.512c0-0.186,0-0.42,0.01-0.692h-0.195l-0.39-0.653
					c-0.624-1.073,1.034-5.668,1.396-6.614c0.136-0.39,0.663-1.911,1.512-2.575c1.16-2.02,2.243-4.038,2.253-4.038l2.634-7.082
					c0.312-0.663,2.303-6.116,3.014-8.545c0.078-0.312,0.127-1.542,0.137-1.951l0.02-0.478c0.02-0.186,1.19-7.492,1.435-14.574
					c0.224-4.994,0.127-9.744,0.068-12.301c-0.02-0.975-0.029-1.6-0.01-1.775l0.097-2.809c0.029-0.518,0.117-1.01,0.215-1.498
					c0.176-1.02,0.322-1.892-0.068-2.58c-0.282-0.526-0.36-1.116-0.429-1.639c-0.02-0.19-0.039-0.365-0.078-0.546
					c-0.234-0.639-0.448-1.181-0.341-1.819c0.058-0.39,0.214-3.287,0-4.595c0-1.97-0.02-4.243-0.42-6.335
					c-0.332-2.087-0.976-6.023-0.976-6.062l-0.195-0.576c-0.595-1.941-1.171-3.887-1.648-5.926
					c-0.117-0.609-1.463-5.994-2.292-8.579c-0.098-0.293-0.703-1.259-0.927-1.629c-0.186-0.288-0.322-0.518-0.381-0.629
					c0,0.01,0.01,0.01,0.01,0.01s-0.107-0.2-0.263-0.498c-0.4-0.819-1.269-2.58-2.078-3.965c-0.186-0.38-0.449-0.693-0.722-1.019
					c-0.479-0.562-1.034-1.2-1.298-2.098l-0.059-0.332l-0.098-3.375l0.215-7.843c0.029-0.497,0.107-1.019,0.195-1.546
					c0.186-1.141,0.352-2.229-0.107-3.097c-0.293-0.542-0.381-1.161-0.459-1.751c-0.028-0.22-0.058-0.439-0.106-0.659
					c-0.029-0.117-0.088-0.249-0.146-0.38c-0.156-0.396-0.381-0.937-0.312-1.585l0.01-0.083c0.02-0.62-0.106-3.883-0.546-5.57
					c-0.381-2.609-0.907-5.506-2.166-8.301c-0.731-1.629-1.57-3.526-2.546-5.165c-0.927-1.708-1.911-3.049-1.921-3.059
					c-2.332-2.936-5.375-5.74-8.73-8.062c-0.293-0.249-2.479-1.766-5.365-3.126c-2.8-1.307-6.136-2.277-8.136-2.707
					c-0.526-0.098-1.99-0.098-2.614-0.098l-2.994,0.078c-1.034,0-1.805-0.146-2.645-0.448c-1.785-0.537-4.682-3.176-4.994-3.995
					l-0.078-0.078l-0.644-1.029c-0.215-0.429-0.321-0.81-0.399-1.141c-0.146-0.59-0.186-0.629-0.264-0.649
					c-0.635-0.209-0.985-0.688-1.21-1.009c-0.39-0.317-0.985-0.698-1.063-1.488c-0.039-0.132-0.517-1.888-0.887-2.639l-0.186-0.595
					c-0.322-1.2-0.654-2.448-1.132-3.531c-0.614-1.316-1.308-3.96-1.337-4.082c-0.604-1.229-1.268-2.795-1.639-4.526
					c-0.117-0.297-0.867-4.453-1.043-6.204c-0.039-0.117-0.244-0.497-0.4-0.795c-0.156-0.322-0.283-0.59-0.312-0.692
					c-0.194-0.478-1.6-5.672-2.575-10.799c-1.044-5.213-1.502-10.008-1.512-11.037c0.02-0.498-0.107-1.927-0.186-2.775l-0.058-0.697
					c-0.02-0.581-0.01-1.131,0-1.673c0.028-1.307,0.048-2.434-0.518-3.273c-0.312-0.458-0.459-1.019-0.614-1.541
					c-0.059-0.229-0.127-0.478-0.205-0.697c-0.049-0.151-0.117-0.259-0.195-0.371c-0.204-0.39-0.487-0.888-0.497-1.526v-0.161
					l0.039-0.161c-0.049-0.2-0.469-3.356-0.985-4.765c-0.526-2.663-1.171-4.843-1.951-6.672l-1.112-2.614
					c-0.751-1.746-1.463-3.429-1.473-3.458c-0.381-0.62-0.878-1.439-1.375-2.258c-0.762-1.249-1.513-2.478-2.186-3.765
					c-0.254-0.546-3.033-5.424-4.478-7.658c-0.155-0.214-0.888-0.893-1.209-1.18c-0.283-0.258-0.508-0.468-0.605-0.571
					c-0.692-0.849-5.442-6.252-10.612-10.725c-2.264-1.98-6.088-5.106-11.569-8.853l-0.273-0.18l-2.507-1.907
					c-0.42-0.307-0.839-0.697-1.258-1.097c-0.781-0.751-1.464-1.4-2.293-1.468c-0.634-0.054-1.18-0.332-1.707-0.6l-0.498-0.239
					c-0.106-0.044-0.214-0.063-0.331-0.093c-0.399-0.088-0.946-0.209-1.434-0.658c-0.244-0.21-2.78-2.02-4.088-2.609
					c-2.146-1.307-3.96-2.385-5.804-3.063l-1.531-0.62c-1.883-0.761-4.088-1.668-4.234-1.722c-2.126-0.517-4.379-1.117-6.633-1.805
					c-0.614-0.229-5.921-1.858-8.389-2.448c-0.225-0.039-0.722-0.068-1.083-0.039h-1.073l-0.341-0.01
					c-0.049,0-0.303-0.02-0.683-0.059c-2.029-0.19-8.253-0.829-14.486-0.463c-4.307,0.161-9.179,0.712-14.534,1.629l-3.653,0.483
					c-0.512,0.068-1.083,0.078-1.658,0.088c-1.112,0.01-2.068,0.02-2.707,0.571c-0.493,0.395-1.112,0.6-1.658,0.766
					c-0.181,0.063-0.371,0.122-0.542,0.19c-0.112,0.039-0.209,0.112-0.297,0.17c-0.352,0.21-0.829,0.498-1.483,0.517
					c-0.346,0.044-3.434,0.532-4.75,1.034c-2.258,0.517-4.458,1.043-6.287,1.882c-1.946,0.81-5.53,2.283-5.73,2.371
					c-2.049,1.239-4.048,2.355-5.945,3.336c-0.59,0.249-5.453,2.756-7.619,4.034c-0.209,0.122-0.912,0.8-1.209,1.092
					c-0.269,0.259-0.493,0.478-0.59,0.556c-0.039,0.029-0.249,0.21-0.59,0.473c-1.575,1.249-6.379,5.062-10.579,9.418
					c-2.936,2.956-6.121,6.643-9.457,10.969l-0.351,0.468c-0.507,0.537-1.819,2.136-1.995,2.385c-0.381,0.473-0.78,0.858-1.19,1.249
					c-0.829,0.8-1.536,1.487-1.658,2.38c-0.093,0.629-0.399,1.166-0.688,1.697c-0.103,0.181-0.2,0.347-0.283,0.517
					c-0.049,0.103-0.087,0.239-0.126,0.371c-0.103,0.38-0.253,0.897-0.673,1.361c-1.897,2.444-2.565,3.614-2.814,4.185l-0.732,1.697
					l-0.209-0.21c-1.019,1.639-1.805,3.175-2.375,4.604l-2.419,6.092c-0.19,0.771-0.41,1.688-0.629,2.609
					c-0.347,1.468-0.698,2.946-1.117,4.423c-0.239,0.678-1.629,6.233-2.097,8.979c-0.068,0.4,0.029,1.658,0.068,2.068l0.039,0.512
					l-0.058,3.775c-0.088,2.068-0.317,4.775-0.6,7.272c-0.507,4.882-1.507,10.477-1.785,11.154c-0.132,0.419-0.59,1.829-0.673,2.078
					c-0.166,0.449-0.386,0.849-0.629,1.249c-0.419,0.722-0.595,1.083-0.478,1.429c0.19,0.61,0.059,1.17-0.029,1.62l-0.068,0.341
					c0.059,0.43,0.127,1.049-0.302,1.625c-0.142,0.244-1.166,2.097-1.43,2.936l-0.219,0.463c-0.698,1.258-1.366,2.444-1.795,3.594
					c-0.502,1.41-1.79,3.614-1.838,3.717c-0.342,1.059-0.912,2.546-1.819,3.814c-0.122,0.321-2.029,2.639-3.049,3.546
					c-0.039,0.112-0.078,0.238-0.117,0.36c-0.093,0.269-0.151,0.469-0.268,0.649c-0.561,0.941-2.531,3.229-3.888,4.087
					c-0.678,0.497-1.438,0.878-2.307,1.136c-0.43,0.112-0.81,0.19-1.112,0.209l-4.102,0.312c-0.459,0.02-1.688,0.249-2.068,0.317
					l-1.521,0.239c-2.814,0.439-5.043,0.8-6.872,2.361c-0.376,0.336-0.946,0.688-1.556,1.058c-0.469,0.288-0.98,0.591-1.41,0.927
					c-0.288,0.21-0.507,0.43-0.727,0.639c-0.419,0.41-0.902,0.858-1.531,1.19l-0.21,0.107c-0.956,0.614-4.965,3.717-6.17,5.609
					c-2.39,2.663-4.229,5.541-5.443,8.497c-1.263,2.829-2.648,7.604-2.668,7.652l-1.141,7.833c-0.161,0.697-0.888,6.492-1.049,9.019
					c-0.01,0.312,0.181,1.326,0.249,1.717c0.063,0.321,0.112,0.57,0.122,0.683c0.078,1.297,0.209,2.824,0.278,3.126
					c0.103,0.508,0.161,0.858,0.229,1.249c0.132,0.717,0.283,1.526,0.371,2.346l0.039,0.332l-0.126,0.297
					c-0.239,0.561-0.581,1.097-0.912,1.619c-0.278,0.439-0.547,0.859-0.678,1.205c-1.156,2.19-1.965,3.99-2.346,4.829
					c-0.142,0.307-0.229,0.507-0.268,0.575c-0.39,0.683-1.312,2.751-1.458,3.087c-0.244,0.522-0.521,1-0.79,1.468
					c-0.619,1.073-1.2,2.078-1.078,3.058c0.059,0.62-0.073,1.22-0.209,1.8c-0.054,0.21-0.102,0.42-0.131,0.62
					c-0.02,0.117-0.01,0.249-0.01,0.375c0,0.41,0.01,0.961-0.278,1.521c-0.142,0.298-1.341,3.317-1.551,4.731
					c-0.839,2.59-1.327,4.609-1.537,6.375l-0.361,2.561c-0.249,1.755-0.488,3.453-0.498,3.482l0.01,0.712
					c-0.02,1.854-0.054,3.765-0.244,5.662c-0.02,0.22-0.249,2.707-0.468,5.044l-0.268,2.975c0,0.186,0.161,0.976,0.239,1.355
					c0.078,0.391,0.141,0.703,0.151,0.83l0.049,0.673c0.132,1.863,0.507,7.53,1.308,13.228c0.702,5.277,1.887,10.671,2.409,12.974
					c0.151,0.663,0.239,1.103,0.258,1.248c0.132,0.644,0.488,2.663,0.561,3.015c0.078,0.497,0.117,1.015,0.161,1.541
					c0.068,1.151,0.137,2.156,0.746,2.849c0.4,0.448,0.609,1.015,0.819,1.551c0.083,0.205,0.151,0.399,0.239,0.595
					c0.054,0.107,0.122,0.205,0.2,0.303c0.229,0.342,0.551,0.8,0.62,1.453c0.063,0.381,0.771,3.561,1.458,4.984
					c0.41,1.298,0.8,2.439,1.259,3.561l0.658,1.522c0.054,0.126,0.112,0.233,0.161,0.321l0.902,1.629
					c0.839,0.908,0.688,2.078,0.585,2.771c-0.039,0.41-0.088,0.624-0.176,0.927c-0.142,0.479-0.399,1.366-0.619,3.727
					c-0.015,0.273,0.146,1.248,0.21,1.668c0.048,0.312,0.087,0.576,0.097,0.683c0.01,0.029,0.039,0.449,0.068,1.112
					c0.102,2.234,0.371,8.174,1.912,14.866c0.985,4.321,2.604,8.73,4.434,12.086c1.527,2.897,3.234,5.102,3.956,6.028
					c0.209,0.264,0.336,0.439,0.399,0.537c0.6,0.838,2.878,3.375,3.327,3.716l0.658,0.644c1.839,1.854,3.917,3.951,6.311,4.439
					c0.552,0.126,1.142,0.351,1.761,0.595c0.518,0.214,1.068,0.419,1.585,0.565c0.322,0.107,0.61,0.156,0.893,0.205
					c0.546,0.098,1.175,0.205,1.805,0.507l0.292,0.205c0.366,0.117,5.121,1.639,7.272,1.658c1.536,0.186,2.507,0.303,2.994,0.751
					c0.42,0.137,0.81,0.352,1.078,0.537c0.8,0.137,1.468,0.487,2.02,1.043c0.17,0.195,1.326,1.483,1.985,2.566
					c0.083,0.039,0.18,0.098,0.263,0.146c0.288,0.156,0.507,0.264,0.688,0.459c0.868,0.79,3.117,3.463,5.053,6.877
					c2.2,3.765,4.166,8.623,4.297,9.325l0.507,2.039c0.093,0.468,0.112,0.907,0.122,1.355c0.02,0.819,0.059,1.21,0.341,1.444
					c0.468,0.409,0.659,0.946,0.819,1.375l0.117,0.322c0.278,0.37,0.659,0.868,0.61,1.57c0.01,0.215,0.151,2.429,0.399,3.385
					l0.049,0.39c0.103,1.513,0.21,3.093,0.532,4.449c0.371,1.57,0.659,4.496,0.678,4.623c0.38,1.326,0.829,3.121,0.941,4.984
					c0,0.215,0.078,2.176,0.156,4.264l0.239,3.443c0,0.029,0.073,0.478,0.761,2.37l0.161,0.556
					c1.81,7.033,3.775,11.852,5.092,14.651c2.648,5.95,6.135,11.228,7.282,12.954c0.21,0.322,0.352,0.518,0.4,0.605l1.649,2.741
					c0.282,0.448,0.531,0.966,0.78,1.502c0.478,1.024,0.888,1.912,1.668,2.282c0.58,0.303,0.99,0.762,1.39,1.21
					c0.127,0.146,0.269,0.302,0.4,0.429c0.078,0.078,0.185,0.146,0.297,0.225c0.317,0.215,0.771,0.527,1.058,1.063
					c1.239,1.932,2.307,3.365,2.956,3.97c1.609,2.127,3.048,3.766,4.448,5.023l1.058,0.967c1.546,1.404,3.434,3.131,3.536,3.219
					c0.468,0.332,1.048,0.722,1.629,1.121c1.336,0.938,2.663,1.863,3.931,2.897c0.361,0.312,4.785,3.688,6.872,5.18
					c0.21,0.127,1.122,0.449,1.512,0.595c0.346,0.137,0.629,0.234,0.736,0.283c0.132,0.059,6.584,3.424,13.598,5.932
					c3.863,1.414,8.477,2.76,13.71,4.009l0.552,0.137c0.688,0.243,2.648,0.78,2.936,0.839c0.59,0.166,1.103,0.37,1.61,0.595
					c1.009,0.419,1.99,0.761,2.755,0.556c0.522-0.146,1.151-0.117,1.849-0.049l0.561,0.049l0,0c0.117,0,0.219-0.02,0.336-0.039
					C237.492,493.85,237.731,493.82,237.96,493.82z M100.692,350.027c0.142,0.253,0.292,0.507,0.468,0.751
					c0.912,1.385,3.268,4.067,3.628,4.38c0.352,0.273,0.688,0.536,1.039,0.79l-0.2-0.195c-0.609-0.419-3.126-3.277-3.765-4.204
					l-0.312-0.41C101.331,350.876,101.043,350.495,100.692,350.027z M88.055,206.316c-0.117,0.146-0.219,0.297-0.307,0.478
					l-0.62,1.239c-0.439,0.878-0.907,1.804-1.019,2.077c-0.059,0.249-0.117,0.488-0.181,0.737c0.02-0.049,0.049-0.107,0.073-0.161
					c0.117-0.278,1.107-2.507,1.556-3.283l0.181-0.39C87.826,206.823,87.938,206.584,88.055,206.316z M128.43,142.364l-4.853,0.381
					c-0.479,0.117-0.927,0.239-1.366,0.37l0.327-0.049c1.727-0.312,2.238-0.37,2.497-0.37l3.507-0.264
					C128.503,142.413,128.474,142.384,128.43,142.364z"/>
			</g>
		</g>
		<path fill="gray" d="M380.325,248.295c-0.244-0.326-0.234-0.868-0.342-1.326c-0.078-0.342-0.409-0.639-0.312-1
			c0.039-0.098,0.37-2.136,0.194-3.268l1.464-0.249c-0.547,0.029-1.521,0-1.513-0.078c0.088-1.521,0.117-3.087-0.165-4.477
			c-0.215-1.4-0.498-6.624-1.834-8.189c-0.156-0.181,0.049-0.479-0.01-0.693c-0.439-1.546-1.59-4.912-1.736-5.141l-0.244-0.502
			c-0.225-0.327-0.322-0.678-1.609-2.717c-2.039-2.956-4.994-7.228-5.805-11.734c-0.828-4.634-0.263-9.691-0.175-13.438
			c0.02-1.995,0.029-3.355,0.038-3.595c0.068-0.438,0.039-0.849,0.166-1.287c0.049-0.181-0.02-0.439,0-0.649
			c0.098-0.98,0.879-2.078,0.039-2.907c-0.253-0.239-0.224-0.678-0.351-1.01c-0.078-0.239-0.42-0.439-0.312-0.688
			c0.039-0.093,0.332-1.522,0.146-2.122l1.473-0.375c-0.536,0.107-1.512,0.229-1.512,0.19c0.01-0.234,0.01-0.429,0.02-0.654
			c-1.278-0.078-3.005-0.249-4.292-0.478c-4.097-0.591-9.423-2.205-14.105-4.683c-9.569-4.994-15.217-12.218-15.666-12.729
			c-0.468-0.678-1.034-1.317-1.424-2.063c-0.166-0.292-0.527-0.648-0.761-1.01c-1.063-1.668-1.522-3.804-3.132-4.955
			c-0.478-0.352-0.907-1.132-1.336-1.727c-0.322-0.449-0.858-0.761-1.015-1.302c-0.059-0.146-1.132-3.195-1.912-4.741l1.444-0.873
			c-0.391,0.234-1.62,0.541-1.668,0.399c-0.781-2.214-1.493-4.453-2.342-6.433c-0.927-1.995-2.702-9.516-4.185-12.067
			c-0.186-0.297-0.02-0.707-0.117-1.039c-0.722-2.346-1.99-7.911-2.077-8.399l-0.244-0.897c-0.195-0.551-1.902-7.014-3.073-13.554
			c-0.604-3.297-1.093-6.545-1.424-9.34c-0.215-2.507-0.381-4.229-0.41-4.536c0.02-0.639-0.058-0.639,0.029-1.02
			c0.029-0.122-0.068-0.268-0.059-0.419c0.088-0.561,0.673-1.78-0.233-2.507c-0.273-0.219-0.293-0.648-0.479-0.99
			c-0.117-0.249-0.478-0.439-0.419-0.727c0.038-0.083,0.146-1.78-0.215-2.658l1.561-0.571c-0.429,0.151-1.639,0.391-1.639,0.312
			c-0.127-1.258-0.37-2.57-0.858-3.688c-0.43-1.097-1.795-5.614-3.473-6.755c-0.186-0.127-0.078-0.449-0.195-0.634
			c-0.741-1.312-2.867-4.316-3.102-4.575l-0.4-0.454c-0.234-0.278-3.199-3.536-6.623-6.37c-3.424-2.848-7.18-5.287-7.492-5.506
			c-0.312-0.288-0.673-0.517-0.975-0.868c-0.117-0.142-0.371-0.229-0.537-0.371c-0.81-0.629-1.307-1.976-2.604-1.814
			c-0.38,0.039-0.78-0.234-1.19-0.38c-0.302-0.112-0.702,0.01-0.906-0.254c-0.059-0.087-1.454-1.355-2.4-1.804l0.645-1.551
			c-0.176,0.419-0.859,1.458-0.927,1.419c-1.161-0.8-2.361-1.658-3.639-2.087c-1.2-0.537-5.658-2.917-7.735-2.575
			c-0.234,0.029-0.391-0.293-0.615-0.352c-1.531-0.439-5.209-1.2-5.55-1.229l-0.604-0.059c-0.391,0.01-4.81-0.429-9.087-0.068
			c-4.297,0.268-8.569,1.136-8.95,1.185c-0.419,0.01-0.819,0.103-1.268,0.039c-0.181-0.02-0.42,0.102-0.63,0.122
			c-1,0.112-2.287-0.517-3.077,0.512c-0.239,0.298-0.717,0.375-1.098,0.556c-0.283,0.132-0.492,0.493-0.819,0.449
			c-0.083-0.01-1.971,0.044-2.946,0.4l-0.62-1.546c0.156,0.419,0.42,1.639,0.317,1.658c-1.385,0.229-2.834,0.478-4.053,1.058
			c-1.229,0.458-6.136,1.917-7.414,3.624c-0.151,0.19-0.488,0.073-0.688,0.19c-1.429,0.771-4.688,2.838-4.956,3.058l-0.498,0.39
			c-0.273,0.278-3.877,3.116-6.872,6.394c-3.068,3.234-5.575,6.74-5.824,7.009c-0.292,0.283-0.532,0.619-0.892,0.868
			c-0.127,0.103-0.22,0.351-0.356,0.512c-0.653,0.717-1.99,1.126-1.839,2.375c0.039,0.38-0.239,0.732-0.399,1.098
			c-0.112,0.273,0,0.673-0.239,0.854c-0.039,0.059-1.38,1.268-1.761,2.156l-1.517-0.688c0.419,0.19,1.448,0.878,1.399,0.937
			c-0.829,1.02-1.57,2.126-2.019,3.278c-0.449,1.097-2.697,5.126-2.209,6.994c0.044,0.205-0.278,0.346-0.308,0.546
			c-0.292,1.39-0.849,4.707-0.829,5.004l0.01,0.551c0,0.087,0.01,0.4,0.02,0.878c-0.039,0.96-0.098,2.248-0.17,3.755
			c-0.171,2.697-0.458,5.994-0.859,9.301c-0.761,6.594-2.077,13.184-2.277,13.744c-0.2,0.609-0.337,1.239-0.619,1.849
			c-0.107,0.239-0.137,0.639-0.239,0.956c-0.517,1.487-1.727,2.897-1.429,4.599c0.103,0.517-0.161,1.224-0.278,1.863
			c-0.083,0.473,0.078,1.009-0.19,1.429c-0.059,0.122-1.399,2.668-1.897,4.229l-1.629-0.42c0.43,0.117,1.527,0.747,1.468,0.878
			c-0.961,1.966-1.99,3.995-2.755,6.004c-0.693,2.004-4.834,8.979-5.985,12.257c-0.122,0.375-0.551,0.585-0.761,0.926
			c-1.327,2.439-5.624,8.111-6.17,8.589l-0.751,0.951c-0.419,0.488-5.823,7.853-15.334,13.042c-4.624,2.6-9.989,4.268-14.101,4.965
			c-1.541,0.272-2.829,0.409-3.955,0.512c-0.22,0.858-0.352,1.849-0.093,2.517c0.063,0.19-0.22,0.352-0.229,0.551
			c-0.161,1.278-0.297,5.034-0.268,5.423l0.048,0.639c0.02,0.336,0.21,2.239,0.449,4.951c0.229,3.727,1.239,8.823-0.269,13.237
			c-0.497,4.438-3.648,8.569-5.945,11.666c-0.697,1.181-0.819,1.78-0.956,1.961c-0.151,0.229-0.249,0.517-0.492,0.8
			c-0.088,0.098-0.107,0.298-0.19,0.458c-0.396,0.698-1.498,1.346-1.024,2.444c0.137,0.322-0.024,0.731-0.054,1.122
			c-0.02,0.288,0.2,0.62,0.01,0.868c-0.059,0.059-0.966,1.61-1.117,2.639l-1.668-0.253c0.439,0.073,1.639,0.473,1.61,0.551
			c-0.532,1.278-0.99,2.707-1.151,4.107c-0.181,1.327-1.498,6.599-0.756,8.828c0.078,0.249-0.209,0.503-0.209,0.751
			c-0.054,1.829-0.161,6.165-0.171,6.545l0.049,0.712c0.049,0.439,0.41,5.609,1.171,10.467c0.717,4.896,1.897,9.335,1.936,9.716
			c0.039,0.429,0.151,0.839,0.126,1.298c-0.01,0.175,0.132,0.419,0.161,0.624c0.122,1.015-0.38,2.312,0.648,3.014
			c0.303,0.215,0.391,0.673,0.591,1.024c0.141,0.244,0.521,0.42,0.492,0.722c0,0.078,0.068,1.824,0.468,2.604l-1.542,0.732
			c0.391-0.195,1.629-0.566,1.639-0.498c0.122,0.595,0.239,1.161,0.4,1.697c0.151,0.332,0.029,0.312,0.419,0.946
			c0.41,0.624,0.81,1.239,1.2,1.854c0.849,1.171,2.478,4.253,3.565,7.325c0.8,3.22,1.161,6.78,1.38,8.809
			c0.078,0.459-0.2,0.985-0.219,1.473c-0.151,2.684-0.532,9.014-0.571,9.59l0.039,0.634c0.039,0.341,0.312,5.17,1.2,7.96
			c0.151,0.429,0.229,0.634,0.351,0.907c0.307,0.058,0.61,0.097,0.956,0.155c2.058,0.332,3.365,0.615,5.024,0.977
			c1.561,0.302,5.155,1.502,8.613,3.189c3.482,1.658,6.701,3.766,8.618,4.701c0.439,0.225,0.712,0.732,1.088,1.044
			c2.97,2.068,8.164,7.706,8.452,8.233l0.8,0.907c0.619,0.507,6.043,7.14,9.55,13.832c3.653,6.662,6.082,13.267,6.243,13.852
			c0.156,0.653,0.4,1.269,0.487,1.96c0.039,0.264,0.239,0.635,0.322,0.977c0.356,1.57,0.068,3.424,1.239,4.711
			c0.346,0.391,0.507,1.122,0.737,1.727c0.18,0.439,0.6,0.81,0.6,1.287c0,0.137,0.21,2.946,0.6,4.449l-1.468,0.478
			c0.517-0.117,1.565-0.146,1.575-0.029c0.22,2.077,0.43,4.214,0.863,6.136c0.469,1.932,0.878,9.18,1.995,11.9
			c0.142,0.322-0.088,0.684-0.039,1.024c0.132,1.249,0.361,3.395,0.468,4.487c0,0.098,0.01,0.195,0,0.166
			c0,0.107,0.019,0.205,0.01,0.166c0.161,1.014,0.219,1.424,0.229,1.512c0.029,0.186,0.073,0.352,0.142,0.526
			c0.142,0.322,1.161,4.077,2.975,7.657c1.712,3.609,4.175,6.994,4.346,7.307c0.17,0.361,0.4,0.673,0.532,1.083
			c0.039,0.175,0.239,0.331,0.336,0.517c0.493,0.829,0.41,2.234,1.659,2.507c0.37,0.078,0.629,0.479,0.931,0.741
			c0.229,0.205,0.629,0.234,0.737,0.537c0.044,0.068,0.79,1.756,1.541,2.458l-1.151,1.19c0.322-0.322,1.312-1.044,1.361-0.976
			c0.727,1.171,1.595,2.312,2.585,3.199c0.961,0.868,4.287,4.673,6.375,5.131c0.229,0.059,0.268,0.41,0.458,0.526
			c1.317,0.947,4.556,3.073,4.882,3.19l0.581,0.282c0.351,0.176,4.506,2.166,8.813,3.609c4.292,1.444,8.667,2.342,9.028,2.449
			c0.391,0.166,0.81,0.243,1.2,0.468c0.161,0.088,0.429,0.068,0.639,0.137c0.956,0.312,1.907,1.375,3.024,0.741
			c0.341-0.176,0.81-0.059,1.219-0.068c0.312,0,0.639-0.264,0.922-0.117c0.068,0.02,1.785,0.801,2.795,0.781l-0.039,1.512
			c0.059-0.547,0.259-1.512,0.327-1.492c1.322,0.38,2.698,0.614,3.99,0.614c1.239-0.01,6.121,0.526,7.916-0.576
			c0.195-0.126,0.458,0.098,0.683,0.068c1.561-0.204,5.297-0.897,5.629-1.024l0.595-0.194c0.37-0.107,4.683-1.522,8.789-3.473
			c4.126-1.932,7.95-4.36,8.311-4.517c0.4-0.156,0.771-0.381,1.21-0.498c0.176-0.049,0.371-0.263,0.575-0.351
			c0.937-0.43,2.36-0.352,2.761-1.59c0.137-0.361,0.566-0.596,0.868-0.897c0.234-0.205,0.283-0.645,0.614-0.732
			c0.068-0.029,1.883-0.663,2.644-1.395l1.112,1.239c-0.312-0.342-0.956-1.386-0.868-1.435c1.249-0.644,2.468-1.434,3.434-2.341
			c0.956-0.888,4.956-3.843,5.502-5.823c0.059-0.225,0.409-0.225,0.536-0.4c1.044-1.18,3.15-4.116,3.307-4.39l0.293-0.507
			c0.146-0.342,2.234-4.059,3.443-7.853c1.355-3.785,1.834-7.55,1.961-7.862c0.107-0.332,0.146-0.692,0.342-1.044
			c0.059-0.127,0.02-0.264,0.068-0.399l0.077-0.146l0.117-0.146l0.127-0.146c0.322-0.937,0.673-2.205,0.283-3.277
			c-0.186-0.488-0.049-1.22-0.039-1.844c0-0.479-0.225-0.966-0.049-1.404c0.049-0.127,0.956-2.741,1.151-4.273l1.541,0.127
			c-0.537-0.098-1.512-0.458-1.473-0.575c0.595-1.99,1.199-4.019,1.531-5.979c0.302-1.941,2.691-8.887,2.721-11.861
			c0-0.352,0.352-0.625,0.449-0.947c0.585-2.331,2.448-7.881,2.663-8.389l0.272-0.927c0.156-0.595,2.137-7.286,5.434-14.192
			c3.103-6.896,8.341-13.92,8.975-14.457c0.586-0.595,1.142-1.248,1.814-1.824c0.303-0.332,0.585-0.624,0.917-0.976
			c1.531-1.453,3.784-2.438,4.984-4.429c0.381-0.595,1.22-1.248,1.941-1.854c0.536-0.448,0.907-1.102,1.551-1.414
			c0.254-0.117,4.253-2.098,6.204-3.062l0.927,1.414c-0.244-0.381-0.478-1.658-0.273-1.736c3.083-1.199,6.419-2.107,9.521-2.878
			c1.171-0.321,3.619-0.673,6.39-0.839c0.059-0.399,0.127-0.829,0.225-1.482c0.39-3.014,0.127-7.784,0.175-8.126
			c0.039-0.438,0.02-0.868,0.137-1.336c0.039-0.195-0.039-0.458-0.02-0.702c0.098-1.083,0.84-2.4,0-3.541
			c-0.253-0.371-0.233-0.917-0.36-1.473c-0.078-0.41-0.41-0.732-0.322-1.2c0.01-0.078,0.088-0.849,0.166-1.727
			c0.02-0.644,0.049-1.327,0.068-1.961c0.02-0.624,0.029-1.21,0.039-1.766c0.049-0.624,0.088-1.249,0.127-1.834
			c0.117-0.868,0.088-0.966,0.351-2.399c0.439-0.966,1.073-1.863,1.678-2.751c-0.848,0.81-0.624-0.215,3.103-7.014
			c0.878-0.917,0.604-0.517,0.868-0.722l0.42-0.283c0.253-0.205,0.487-0.438,0.624-0.712c0.302-0.36,2.683-3.434,2.438-5.424
			c-0.02-0.204,0.293-0.312,0.361-0.507c0.458-1.287,1.404-4.838,1.463-5.199l0.078-0.624c0.029-0.371,0.634-4.858,0.751-9.774
			c0.166-4.877-0.127-10.027-0.078-10.457c0.068-0.479,0.039-0.966,0.156-1.463c0.039-0.195-0.029-0.488-0.02-0.742
			C380.394,250.686,381.154,249.393,380.325,248.295z M210.852,325.182c23.46-84.836,0,0,23.46-84.836
			c-14.51-5.853-24.762-20.08-24.762-36.677c0-21.836,17.7-39.536,39.546-39.536c21.84,0,39.535,17.7,39.535,39.536
			c0,14.871-8.193,27.815-20.318,34.57c22.582,86.943,22.582,86.943,22.582,86.943S213.817,325.182,210.852,325.182z"/>
	</g>
</g>
<g>
</g>
<g>
</g>
<g>
</g>
<g>
</g>
<g>
</g>
<g>
</g>
<g>
</g>
<g>
</g>
<g>
</g>
<g>
</g>
<g>
</g>
<g>
</g>
<g>
</g>
<g>
</g>
<g>
</g>
</svg>
